<?xml version="1.0" encoding="UTF-8" standalone="no"?>
<!DOCTYPE svg PUBLIC "-//W3C//DTD SVG 1.1//EN"
 "http://www.w3.org/Graphics/SVG/1.1/DTD/svg11.dtd">
<!-- Generated by graphviz version 13.1.0 (20250701.0955)
 -->
<!-- Pages: 1 -->
<svg width="689pt" height="848pt"
 viewBox="0.00 0.00 689.00 848.00" xmlns="http://www.w3.org/2000/svg" xmlns:xlink="http://www.w3.org/1999/xlink">
<g id="graph0" class="graph" transform="scale(1 1) rotate(0) translate(4 844)">
<g id="a_graph0"><a xlink:title=" ">
<polygon fill="white" stroke="none" points="-4,4 -4,-844 684.75,-844 684.75,4 -4,4"/>
</a>
</g>
<!-- 6 -->
<g id="node1" class="node">
<title>6</title>
<g id="a_node1"><a xlink:title="/Users/jzou/cs336/ass1/cs336_basics/train_bpe.py">
<polygon fill="#ff0000" stroke="#ff0000" points="539.88,-742 422.62,-742 422.62,-686 539.88,-686 539.88,-742"/>
<text xml:space="preserve" text-anchor="middle" x="481.25" y="-728.5" font-family="Arial" font-size="10.00" fill="#ffffff">train_bpe:321:train_bpe</text>
<text xml:space="preserve" text-anchor="middle" x="481.25" y="-716.5" font-family="Arial" font-size="10.00" fill="#ffffff">100.00%</text>
<text xml:space="preserve" text-anchor="middle" x="481.25" y="-704.5" font-family="Arial" font-size="10.00" fill="#ffffff">(0.00%)</text>
<text xml:space="preserve" text-anchor="middle" x="481.25" y="-692.5" font-family="Arial" font-size="10.00" fill="#ffffff">1×</text>
</a>
</g>
</g>
<!-- 68 -->
<g id="node2" class="node">
<title>68</title>
<g id="a_node2"><a xlink:title="/Users/jzou/cs336/ass1/cs336_basics/train_bpe.py">
<polygon fill="#f34c02" stroke="#f34c02" points="479.75,-644 310.75,-644 310.75,-588 479.75,-588 479.75,-644"/>
<text xml:space="preserve" text-anchor="middle" x="395.25" y="-630.5" font-family="Arial" font-size="10.00" fill="#ffffff">train_bpe:282:perform_bpe_merges</text>
<text xml:space="preserve" text-anchor="middle" x="395.25" y="-618.5" font-family="Arial" font-size="10.00" fill="#ffffff">92.33%</text>
<text xml:space="preserve" text-anchor="middle" x="395.25" y="-606.5" font-family="Arial" font-size="10.00" fill="#ffffff">(0.61%)</text>
<text xml:space="preserve" text-anchor="middle" x="395.25" y="-594.5" font-family="Arial" font-size="10.00" fill="#ffffff">1×</text>
</a>
</g>
</g>
<!-- 6&#45;&gt;68 -->
<g id="edge1" class="edge">
<title>6&#45;&gt;68</title>
<path fill="none" stroke="#f34c02" stroke-width="3.69" d="M456.84,-685.75C448.39,-676.32 438.77,-665.58 429.67,-655.43"/>
<polygon fill="#f34c02" stroke="#f34c02" stroke-width="3.69" points="432.36,-653.39 423.45,-648.48 427.35,-657.87 432.36,-653.39"/>
<text xml:space="preserve" text-anchor="middle" x="464.98" y="-667.5" font-family="Arial" font-size="10.00" fill="#f34c02">92.33%</text>
<text xml:space="preserve" text-anchor="middle" x="464.98" y="-655.5" font-family="Arial" font-size="10.00" fill="#f34c02">1×</text>
</g>
<!-- 70 -->
<g id="node3" class="node">
<title>70</title>
<g id="a_node3"><a xlink:title="/Users/jzou/cs336/ass1/cs336_basics/train_bpe.py">
<polygon fill="#0d2f7d" stroke="#0d2f7d" points="649.62,-644 488.88,-644 488.88,-588 649.62,-588 649.62,-644"/>
<text xml:space="preserve" text-anchor="middle" x="569.25" y="-630.5" font-family="Arial" font-size="10.00" fill="#ffffff">train_bpe:111:pretokenize_corpus</text>
<text xml:space="preserve" text-anchor="middle" x="569.25" y="-618.5" font-family="Arial" font-size="10.00" fill="#ffffff">7.67%</text>
<text xml:space="preserve" text-anchor="middle" x="569.25" y="-606.5" font-family="Arial" font-size="10.00" fill="#ffffff">(0.00%)</text>
<text xml:space="preserve" text-anchor="middle" x="569.25" y="-594.5" font-family="Arial" font-size="10.00" fill="#ffffff">1×</text>
</a>
</g>
</g>
<!-- 6&#45;&gt;70 -->
<g id="edge2" class="edge">
<title>6&#45;&gt;70</title>
<path fill="none" stroke="#0d2f7d" stroke-width="0.5" d="M506.23,-685.75C517.19,-673.79 530.1,-659.7 541.38,-647.41"/>
<polygon fill="#0d2f7d" stroke="#0d2f7d" stroke-width="0.5" points="542.23,-648.29 543.69,-644.88 540.43,-646.63 542.23,-648.29"/>
<text xml:space="preserve" text-anchor="middle" x="549.59" y="-667.5" font-family="Arial" font-size="10.00" fill="#0d2f7d">7.67%</text>
<text xml:space="preserve" text-anchor="middle" x="549.59" y="-655.5" font-family="Arial" font-size="10.00" fill="#0d2f7d">1×</text>
</g>
<!-- 197 -->
<g id="node8" class="node">
<title>197</title>
<g id="a_node8"><a xlink:title="/Users/jzou/cs336/ass1/cs336_basics/train_bpe.py">
<polygon fill="#12b709" stroke="#12b709" points="305.75,-546 124.75,-546 124.75,-490 305.75,-490 305.75,-546"/>
<text xml:space="preserve" text-anchor="middle" x="215.25" y="-532.5" font-family="Arial" font-size="10.00" fill="#ffffff">train_bpe:241:_update_tokens_counts</text>
<text xml:space="preserve" text-anchor="middle" x="215.25" y="-520.5" font-family="Arial" font-size="10.00" fill="#ffffff">51.29%</text>
<text xml:space="preserve" text-anchor="middle" x="215.25" y="-508.5" font-family="Arial" font-size="10.00" fill="#ffffff">(43.87%)</text>
<text xml:space="preserve" text-anchor="middle" x="215.25" y="-496.5" font-family="Arial" font-size="10.00" fill="#ffffff">9743×</text>
</a>
</g>
</g>
<!-- 68&#45;&gt;197 -->
<g id="edge6" class="edge">
<title>68&#45;&gt;197</title>
<path fill="none" stroke="#12b709" stroke-width="2.05" d="M344.15,-587.75C322.87,-576.4 297.99,-563.13 275.79,-551.29"/>
<polygon fill="#12b709" stroke="#12b709" stroke-width="2.05" points="277.07,-549.11 269.53,-547.95 274.69,-553.56 277.07,-549.11"/>
<text xml:space="preserve" text-anchor="middle" x="343.17" y="-569.5" font-family="Arial" font-size="10.00" fill="#12b709">51.29%</text>
<text xml:space="preserve" text-anchor="middle" x="343.17" y="-557.5" font-family="Arial" font-size="10.00" fill="#12b709">9743×</text>
</g>
<!-- 211 -->
<g id="node9" class="node">
<title>211</title>
<g id="a_node9"><a xlink:title="/Users/jzou/cs336/ass1/cs336_basics/train_bpe.py">
<polygon fill="#0ba847" stroke="#0ba847" points="503.88,-546 314.62,-546 314.62,-490 503.88,-490 503.88,-546"/>
<text xml:space="preserve" text-anchor="middle" x="409.25" y="-532.5" font-family="Arial" font-size="10.00" fill="#ffffff">train_bpe:168:_find_most_common_pair</text>
<text xml:space="preserve" text-anchor="middle" x="409.25" y="-520.5" font-family="Arial" font-size="10.00" fill="#ffffff">40.43%</text>
<text xml:space="preserve" text-anchor="middle" x="409.25" y="-508.5" font-family="Arial" font-size="10.00" fill="#ffffff">(32.92%)</text>
<text xml:space="preserve" text-anchor="middle" x="409.25" y="-496.5" font-family="Arial" font-size="10.00" fill="#ffffff">9743×</text>
</a>
</g>
</g>
<!-- 68&#45;&gt;211 -->
<g id="edge7" class="edge">
<title>68&#45;&gt;211</title>
<path fill="none" stroke="#0ba847" stroke-width="1.62" d="M399.22,-587.75C400.72,-577.51 402.44,-565.72 404.03,-554.82"/>
<polygon fill="#0ba847" stroke="#0ba847" stroke-width="1.62" points="406.2,-555.4 404.91,-548.75 401.77,-554.76 406.2,-555.4"/>
<text xml:space="preserve" text-anchor="middle" x="420.42" y="-569.5" font-family="Arial" font-size="10.00" fill="#0ba847">40.43%</text>
<text xml:space="preserve" text-anchor="middle" x="420.42" y="-557.5" font-family="Arial" font-size="10.00" fill="#0ba847">9743×</text>
</g>
<!-- 136 -->
<g id="node10" class="node">
<title>136</title>
<g id="a_node10"><a xlink:title="/opt/nflx/cpython&#45;3.11.13/lib/python3.11/multiprocessing/pool.py">
<polygon fill="#0d2f7d" stroke="#0d2f7d" points="606.5,-546 532,-546 532,-490 606.5,-490 606.5,-546"/>
<text xml:space="preserve" text-anchor="middle" x="569.25" y="-532.5" font-family="Arial" font-size="10.00" fill="#ffffff">pool:362:map</text>
<text xml:space="preserve" text-anchor="middle" x="569.25" y="-520.5" font-family="Arial" font-size="10.00" fill="#ffffff">7.66%</text>
<text xml:space="preserve" text-anchor="middle" x="569.25" y="-508.5" font-family="Arial" font-size="10.00" fill="#ffffff">(0.00%)</text>
<text xml:space="preserve" text-anchor="middle" x="569.25" y="-496.5" font-family="Arial" font-size="10.00" fill="#ffffff">1×</text>
</a>
</g>
</g>
<!-- 70&#45;&gt;136 -->
<g id="edge8" class="edge">
<title>70&#45;&gt;136</title>
<path fill="none" stroke="#0d2f7d" stroke-width="0.5" d="M569.25,-587.75C569.25,-576.09 569.25,-562.42 569.25,-550.35"/>
<polygon fill="#0d2f7d" stroke="#0d2f7d" stroke-width="0.5" points="570.48,-550.58 569.25,-547.08 568.03,-550.58 570.48,-550.58"/>
<text xml:space="preserve" text-anchor="middle" x="583.12" y="-569.5" font-family="Arial" font-size="10.00" fill="#0d2f7d">7.66%</text>
<text xml:space="preserve" text-anchor="middle" x="583.12" y="-557.5" font-family="Arial" font-size="10.00" fill="#0d2f7d">1×</text>
</g>
<!-- 36 -->
<g id="node4" class="node">
<title>36</title>
<g id="a_node4"><a xlink:title="/opt/nflx/cpython&#45;3.11.13/lib/python3.11/threading.py">
<polygon fill="#0d2f7d" stroke="#0d2f7d" points="617,-154 521.5,-154 521.5,-98 617,-98 617,-154"/>
<text xml:space="preserve" text-anchor="middle" x="569.25" y="-140.5" font-family="Arial" font-size="10.00" fill="#ffffff">threading:295:wait</text>
<text xml:space="preserve" text-anchor="middle" x="569.25" y="-128.5" font-family="Arial" font-size="10.00" fill="#ffffff">7.66%</text>
<text xml:space="preserve" text-anchor="middle" x="569.25" y="-116.5" font-family="Arial" font-size="10.00" fill="#ffffff">(0.00%)</text>
<text xml:space="preserve" text-anchor="middle" x="569.25" y="-104.5" font-family="Arial" font-size="10.00" fill="#ffffff">4×</text>
</a>
</g>
</g>
<!-- 337 -->
<g id="node5" class="node">
<title>337</title>
<g id="a_node5"><a xlink:title="~">
<polygon fill="#0d2f7d" stroke="#0d2f7d" points="680.75,-56 457.75,-56 457.75,0 680.75,0 680.75,-56"/>
<text xml:space="preserve" text-anchor="middle" x="569.25" y="-42.5" font-family="Arial" font-size="10.00" fill="#ffffff">~:0:&lt;method &#39;acquire&#39; of &#39;_thread.lock&#39; objects&gt;</text>
<text xml:space="preserve" text-anchor="middle" x="569.25" y="-30.5" font-family="Arial" font-size="10.00" fill="#ffffff">7.66%</text>
<text xml:space="preserve" text-anchor="middle" x="569.25" y="-18.5" font-family="Arial" font-size="10.00" fill="#ffffff">(7.66%)</text>
<text xml:space="preserve" text-anchor="middle" x="569.25" y="-6.5" font-family="Arial" font-size="10.00" fill="#ffffff">19×</text>
</a>
</g>
</g>
<!-- 36&#45;&gt;337 -->
<g id="edge3" class="edge">
<title>36&#45;&gt;337</title>
<path fill="none" stroke="#0d2f7d" stroke-width="0.5" d="M569.25,-97.75C569.25,-86.09 569.25,-72.42 569.25,-60.35"/>
<polygon fill="#0d2f7d" stroke="#0d2f7d" stroke-width="0.5" points="570.48,-60.58 569.25,-57.08 568.03,-60.58 570.48,-60.58"/>
<text xml:space="preserve" text-anchor="middle" x="583.12" y="-79.5" font-family="Arial" font-size="10.00" fill="#0d2f7d">7.66%</text>
<text xml:space="preserve" text-anchor="middle" x="583.12" y="-67.5" font-family="Arial" font-size="10.00" fill="#0d2f7d">8×</text>
</g>
<!-- 37 -->
<g id="node6" class="node">
<title>37</title>
<g id="a_node6"><a xlink:title="/opt/nflx/cpython&#45;3.11.13/lib/python3.11/threading.py">
<polygon fill="#0d2f7d" stroke="#0d2f7d" points="616.62,-252 521.88,-252 521.88,-196 616.62,-196 616.62,-252"/>
<text xml:space="preserve" text-anchor="middle" x="569.25" y="-238.5" font-family="Arial" font-size="10.00" fill="#ffffff">threading:611:wait</text>
<text xml:space="preserve" text-anchor="middle" x="569.25" y="-226.5" font-family="Arial" font-size="10.00" fill="#ffffff">7.66%</text>
<text xml:space="preserve" text-anchor="middle" x="569.25" y="-214.5" font-family="Arial" font-size="10.00" fill="#ffffff">(0.00%)</text>
<text xml:space="preserve" text-anchor="middle" x="569.25" y="-202.5" font-family="Arial" font-size="10.00" fill="#ffffff">4×</text>
</a>
</g>
</g>
<!-- 37&#45;&gt;36 -->
<g id="edge4" class="edge">
<title>37&#45;&gt;36</title>
<path fill="none" stroke="#0d2f7d" stroke-width="0.5" d="M569.25,-195.75C569.25,-184.09 569.25,-170.42 569.25,-158.35"/>
<polygon fill="#0d2f7d" stroke="#0d2f7d" stroke-width="0.5" points="570.48,-158.58 569.25,-155.08 568.03,-158.58 570.48,-158.58"/>
<text xml:space="preserve" text-anchor="middle" x="583.12" y="-177.5" font-family="Arial" font-size="10.00" fill="#0d2f7d">7.66%</text>
<text xml:space="preserve" text-anchor="middle" x="583.12" y="-165.5" font-family="Arial" font-size="10.00" fill="#0d2f7d">4×</text>
</g>
<!-- 38 -->
<g id="node7" class="node">
<title>38</title>
<g id="a_node7"><a xlink:title="/opt/nflx/cpython&#45;3.11.13/lib/python3.11/multiprocessing/pool.py">
<polygon fill="#0d2f7d" stroke="#0d2f7d" points="606.12,-350 532.38,-350 532.38,-294 606.12,-294 606.12,-350"/>
<text xml:space="preserve" text-anchor="middle" x="569.25" y="-336.5" font-family="Arial" font-size="10.00" fill="#ffffff">pool:764:wait</text>
<text xml:space="preserve" text-anchor="middle" x="569.25" y="-324.5" font-family="Arial" font-size="10.00" fill="#ffffff">7.66%</text>
<text xml:space="preserve" text-anchor="middle" x="569.25" y="-312.5" font-family="Arial" font-size="10.00" fill="#ffffff">(0.00%)</text>
<text xml:space="preserve" text-anchor="middle" x="569.25" y="-300.5" font-family="Arial" font-size="10.00" fill="#ffffff">1×</text>
</a>
</g>
</g>
<!-- 38&#45;&gt;37 -->
<g id="edge5" class="edge">
<title>38&#45;&gt;37</title>
<path fill="none" stroke="#0d2f7d" stroke-width="0.5" d="M569.25,-293.75C569.25,-282.09 569.25,-268.42 569.25,-256.35"/>
<polygon fill="#0d2f7d" stroke="#0d2f7d" stroke-width="0.5" points="570.48,-256.58 569.25,-253.08 568.03,-256.58 570.48,-256.58"/>
<text xml:space="preserve" text-anchor="middle" x="583.12" y="-275.5" font-family="Arial" font-size="10.00" fill="#0d2f7d">7.66%</text>
<text xml:space="preserve" text-anchor="middle" x="583.12" y="-263.5" font-family="Arial" font-size="10.00" fill="#0d2f7d">1×</text>
</g>
<!-- 194 -->
<g id="node14" class="node">
<title>194</title>
<g id="a_node14"><a xlink:title="~">
<polygon fill="#0d267a" stroke="#0d267a" points="182.5,-448 0,-448 0,-392 182.5,-392 182.5,-448"/>
<text xml:space="preserve" text-anchor="middle" x="91.25" y="-434.5" font-family="Arial" font-size="10.00" fill="#ffffff">~:0:&lt;method &#39;append&#39; of &#39;list&#39; objects&gt;</text>
<text xml:space="preserve" text-anchor="middle" x="91.25" y="-422.5" font-family="Arial" font-size="10.00" fill="#ffffff">5.81%</text>
<text xml:space="preserve" text-anchor="middle" x="91.25" y="-410.5" font-family="Arial" font-size="10.00" fill="#ffffff">(5.81%)</text>
<text xml:space="preserve" text-anchor="middle" x="91.25" y="-398.5" font-family="Arial" font-size="10.00" fill="#ffffff">1795182543×</text>
</a>
</g>
</g>
<!-- 197&#45;&gt;194 -->
<g id="edge12" class="edge">
<title>197&#45;&gt;194</title>
<path fill="none" stroke="#0d267a" stroke-width="0.5" d="M163.04,-489.55C158.78,-486.81 154.63,-483.95 150.75,-481 139.22,-472.24 127.73,-461.32 117.97,-451.2"/>
<polygon fill="#0d267a" stroke="#0d267a" stroke-width="0.5" points="119.09,-450.6 115.79,-448.92 117.32,-452.29 119.09,-450.6"/>
<text xml:space="preserve" text-anchor="middle" x="180" y="-471.5" font-family="Arial" font-size="10.00" fill="#0d267a">5.81%</text>
<text xml:space="preserve" text-anchor="middle" x="180" y="-459.5" font-family="Arial" font-size="10.00" fill="#0d267a">1795172735×</text>
</g>
<!-- 274 -->
<g id="node15" class="node">
<title>274</title>
<g id="a_node15"><a xlink:title="~">
<polygon fill="#0d1b77" stroke="#0d1b77" points="350.5,-448 192,-448 192,-392 350.5,-392 350.5,-448"/>
<text xml:space="preserve" text-anchor="middle" x="271.25" y="-434.5" font-family="Arial" font-size="10.00" fill="#ffffff">~:0:&lt;built&#45;in method builtins.len&gt;</text>
<text xml:space="preserve" text-anchor="middle" x="271.25" y="-422.5" font-family="Arial" font-size="10.00" fill="#ffffff">3.38%</text>
<text xml:space="preserve" text-anchor="middle" x="271.25" y="-410.5" font-family="Arial" font-size="10.00" fill="#ffffff">(3.38%)</text>
<text xml:space="preserve" text-anchor="middle" x="271.25" y="-398.5" font-family="Arial" font-size="10.00" fill="#ffffff">1094182738×</text>
</a>
</g>
</g>
<!-- 197&#45;&gt;274 -->
<g id="edge13" class="edge">
<title>197&#45;&gt;274</title>
<path fill="none" stroke="#0d1375" stroke-width="0.5" d="M211.41,-489.57C211.17,-478.81 212.54,-466.73 218,-457 219.09,-455.05 220.34,-453.19 221.71,-451.41"/>
<polygon fill="#0d1375" stroke="#0d1375" stroke-width="0.5" points="222.52,-452.35 223.82,-448.88 220.63,-450.79 222.52,-452.35"/>
<text xml:space="preserve" text-anchor="middle" x="244.62" y="-471.5" font-family="Arial" font-size="10.00" fill="#0d1375">1.61%</text>
<text xml:space="preserve" text-anchor="middle" x="244.62" y="-459.5" font-family="Arial" font-size="10.00" fill="#0d1375">547086445×</text>
</g>
<!-- 128 -->
<g id="node12" class="node">
<title>128</title>
<g id="a_node12"><a xlink:title="~">
<polygon fill="#0d267a" stroke="#0d267a" points="524.5,-448 360,-448 360,-392 524.5,-392 524.5,-448"/>
<text xml:space="preserve" text-anchor="middle" x="442.25" y="-434.5" font-family="Arial" font-size="10.00" fill="#ffffff">~:0:&lt;built&#45;in method builtins.max&gt;</text>
<text xml:space="preserve" text-anchor="middle" x="442.25" y="-422.5" font-family="Arial" font-size="10.00" fill="#ffffff">5.75%</text>
<text xml:space="preserve" text-anchor="middle" x="442.25" y="-410.5" font-family="Arial" font-size="10.00" fill="#ffffff">(2.98%)</text>
<text xml:space="preserve" text-anchor="middle" x="442.25" y="-398.5" font-family="Arial" font-size="10.00" fill="#ffffff">9770×</text>
</a>
</g>
</g>
<!-- 211&#45;&gt;128 -->
<g id="edge14" class="edge">
<title>211&#45;&gt;128</title>
<path fill="none" stroke="#0d267a" stroke-width="0.5" d="M418.62,-489.75C422.66,-477.99 427.41,-464.18 431.58,-452.03"/>
<polygon fill="#0d267a" stroke="#0d267a" stroke-width="0.5" points="432.63,-452.74 432.61,-449.04 430.32,-451.95 432.63,-452.74"/>
<text xml:space="preserve" text-anchor="middle" x="443.55" y="-471.5" font-family="Arial" font-size="10.00" fill="#0d267a">5.75%</text>
<text xml:space="preserve" text-anchor="middle" x="443.55" y="-459.5" font-family="Arial" font-size="10.00" fill="#0d267a">9743×</text>
</g>
<!-- 211&#45;&gt;274 -->
<g id="edge15" class="edge">
<title>211&#45;&gt;274</title>
<path fill="none" stroke="#0d1475" stroke-width="0.5" d="M370.07,-489.75C352.45,-477.49 331.61,-462.99 313.62,-450.47"/>
<polygon fill="#0d1475" stroke="#0d1475" stroke-width="0.5" points="314.72,-449.75 311.15,-448.75 313.32,-451.76 314.72,-449.75"/>
<text xml:space="preserve" text-anchor="middle" x="383.29" y="-471.5" font-family="Arial" font-size="10.00" fill="#0d1475">1.77%</text>
<text xml:space="preserve" text-anchor="middle" x="383.29" y="-459.5" font-family="Arial" font-size="10.00" fill="#0d1475">547086445×</text>
</g>
<!-- 138 -->
<g id="node13" class="node">
<title>138</title>
<g id="a_node13"><a xlink:title="/opt/nflx/cpython&#45;3.11.13/lib/python3.11/multiprocessing/pool.py">
<polygon fill="#0d2f7d" stroke="#0d2f7d" points="603.88,-448 534.62,-448 534.62,-392 603.88,-392 603.88,-448"/>
<text xml:space="preserve" text-anchor="middle" x="569.25" y="-434.5" font-family="Arial" font-size="10.00" fill="#ffffff">pool:767:get</text>
<text xml:space="preserve" text-anchor="middle" x="569.25" y="-422.5" font-family="Arial" font-size="10.00" fill="#ffffff">7.66%</text>
<text xml:space="preserve" text-anchor="middle" x="569.25" y="-410.5" font-family="Arial" font-size="10.00" fill="#ffffff">(0.00%)</text>
<text xml:space="preserve" text-anchor="middle" x="569.25" y="-398.5" font-family="Arial" font-size="10.00" fill="#ffffff">1×</text>
</a>
</g>
</g>
<!-- 136&#45;&gt;138 -->
<g id="edge10" class="edge">
<title>136&#45;&gt;138</title>
<path fill="none" stroke="#0d2f7d" stroke-width="0.5" d="M569.25,-489.75C569.25,-478.09 569.25,-464.42 569.25,-452.35"/>
<polygon fill="#0d2f7d" stroke="#0d2f7d" stroke-width="0.5" points="570.48,-452.58 569.25,-449.08 568.03,-452.58 570.48,-452.58"/>
<text xml:space="preserve" text-anchor="middle" x="583.12" y="-471.5" font-family="Arial" font-size="10.00" fill="#0d2f7d">7.66%</text>
<text xml:space="preserve" text-anchor="middle" x="583.12" y="-459.5" font-family="Arial" font-size="10.00" fill="#0d2f7d">1×</text>
</g>
<!-- 127 -->
<g id="node11" class="node">
<title>127</title>
<g id="a_node11"><a xlink:title="/Users/jzou/cs336/ass1/cs336_basics/train_bpe.py">
<polygon fill="#0d1876" stroke="#0d1876" points="502.75,-350 381.75,-350 381.75,-294 502.75,-294 502.75,-350"/>
<text xml:space="preserve" text-anchor="middle" x="442.25" y="-336.5" font-family="Arial" font-size="10.00" fill="#ffffff">train_bpe:197:&lt;lambda&gt;</text>
<text xml:space="preserve" text-anchor="middle" x="442.25" y="-324.5" font-family="Arial" font-size="10.00" fill="#ffffff">2.77%</text>
<text xml:space="preserve" text-anchor="middle" x="442.25" y="-312.5" font-family="Arial" font-size="10.00" fill="#ffffff">(2.77%)</text>
<text xml:space="preserve" text-anchor="middle" x="442.25" y="-300.5" font-family="Arial" font-size="10.00" fill="#ffffff">369218707×</text>
</a>
</g>
</g>
<!-- 128&#45;&gt;127 -->
<g id="edge9" class="edge">
<title>128&#45;&gt;127</title>
<path fill="none" stroke="#0d1876" stroke-width="0.5" d="M442.25,-391.75C442.25,-380.09 442.25,-366.42 442.25,-354.35"/>
<polygon fill="#0d1876" stroke="#0d1876" stroke-width="0.5" points="443.48,-354.58 442.25,-351.08 441.03,-354.58 443.48,-354.58"/>
<text xml:space="preserve" text-anchor="middle" x="468.88" y="-373.5" font-family="Arial" font-size="10.00" fill="#0d1876">2.77%</text>
<text xml:space="preserve" text-anchor="middle" x="468.88" y="-361.5" font-family="Arial" font-size="10.00" fill="#0d1876">369218707×</text>
</g>
<!-- 138&#45;&gt;38 -->
<g id="edge11" class="edge">
<title>138&#45;&gt;38</title>
<path fill="none" stroke="#0d2f7d" stroke-width="0.5" d="M569.25,-391.75C569.25,-380.09 569.25,-366.42 569.25,-354.35"/>
<polygon fill="#0d2f7d" stroke="#0d2f7d" stroke-width="0.5" points="570.48,-354.58 569.25,-351.08 568.03,-354.58 570.48,-354.58"/>
<text xml:space="preserve" text-anchor="middle" x="583.12" y="-373.5" font-family="Arial" font-size="10.00" fill="#0d2f7d">7.66%</text>
<text xml:space="preserve" text-anchor="middle" x="583.12" y="-361.5" font-family="Arial" font-size="10.00" fill="#0d2f7d">1×</text>
</g>
<!-- 276 -->
<g id="node16" class="node">
<title>276</title>
<g id="a_node16"><a xlink:title="/Users/jzou/cs336/ass1/scripts/train_bpe_cli.py">
<polygon fill="#ff0000" stroke="#ff0000" points="552.62,-840 409.88,-840 409.88,-784 552.62,-784 552.62,-840"/>
<text xml:space="preserve" text-anchor="middle" x="481.25" y="-826.5" font-family="Arial" font-size="10.00" fill="#ffffff">train_bpe_cli:159:run_training</text>
<text xml:space="preserve" text-anchor="middle" x="481.25" y="-814.5" font-family="Arial" font-size="10.00" fill="#ffffff">100.00%</text>
<text xml:space="preserve" text-anchor="middle" x="481.25" y="-802.5" font-family="Arial" font-size="10.00" fill="#ffffff">(0.00%)</text>
<text xml:space="preserve" text-anchor="middle" x="481.25" y="-790.5" font-family="Arial" font-size="10.00" fill="#ffffff">1×</text>
</a>
</g>
</g>
<!-- 276&#45;&gt;6 -->
<g id="edge16" class="edge">
<title>276&#45;&gt;6</title>
<path fill="none" stroke="#ff0000" stroke-width="4" d="M481.25,-783.75C481.25,-775.74 481.25,-766.78 481.25,-758.04"/>
<polygon fill="#ff0000" stroke="#ff0000" stroke-width="4" points="484.75,-758.38 481.25,-748.38 477.75,-758.38 484.75,-758.38"/>
<text xml:space="preserve" text-anchor="middle" x="500.38" y="-765.5" font-family="Arial" font-size="10.00" fill="#ff0000">100.00%</text>
<text xml:space="preserve" text-anchor="middle" x="500.38" y="-753.5" font-family="Arial" font-size="10.00" fill="#ff0000">1×</text>
</g>
</g>
</svg>
