<?xml version="1.0" encoding="UTF-8" standalone="no"?>
<!DOCTYPE svg PUBLIC "-//W3C//DTD SVG 1.1//EN"
 "http://www.w3.org/Graphics/SVG/1.1/DTD/svg11.dtd">
<!-- Generated by graphviz version 13.1.0 (20250701.0955)
 -->
<!-- Pages: 1 -->
<svg width="554pt" height="848pt"
 viewBox="0.00 0.00 554.00 848.00" xmlns="http://www.w3.org/2000/svg" xmlns:xlink="http://www.w3.org/1999/xlink">
<g id="graph0" class="graph" transform="scale(1 1) rotate(0) translate(4 844)">
<g id="a_graph0"><a xlink:title=" ">
<polygon fill="white" stroke="none" points="-4,4 -4,-844 549.75,-844 549.75,4 -4,4"/>
</a>
</g>
<!-- 6 -->
<g id="node1" class="node">
<title>6</title>
<g id="a_node1"><a xlink:title="/Users/jzou/cs336/ass1/cs336_basics/train_bpe.py">
<polygon fill="#ff0000" stroke="#ff0000" points="404.88,-742 287.62,-742 287.62,-686 404.88,-686 404.88,-742"/>
<text xml:space="preserve" text-anchor="middle" x="346.25" y="-728.5" font-family="Arial" font-size="10.00" fill="#ffffff">train_bpe:317:train_bpe</text>
<text xml:space="preserve" text-anchor="middle" x="346.25" y="-716.5" font-family="Arial" font-size="10.00" fill="#ffffff">100.00%</text>
<text xml:space="preserve" text-anchor="middle" x="346.25" y="-704.5" font-family="Arial" font-size="10.00" fill="#ffffff">(0.01%)</text>
<text xml:space="preserve" text-anchor="middle" x="346.25" y="-692.5" font-family="Arial" font-size="10.00" fill="#ffffff">1×</text>
</a>
</g>
</g>
<!-- 63 -->
<g id="node2" class="node">
<title>63</title>
<g id="a_node2"><a xlink:title="/Users/jzou/cs336/ass1/cs336_basics/train_bpe.py">
<polygon fill="#0c968c" stroke="#0c968c" points="343.75,-644 174.75,-644 174.75,-588 343.75,-588 343.75,-644"/>
<text xml:space="preserve" text-anchor="middle" x="259.25" y="-630.5" font-family="Arial" font-size="10.00" fill="#ffffff">train_bpe:278:perform_bpe_merges</text>
<text xml:space="preserve" text-anchor="middle" x="259.25" y="-618.5" font-family="Arial" font-size="10.00" fill="#ffffff">26.68%</text>
<text xml:space="preserve" text-anchor="middle" x="259.25" y="-606.5" font-family="Arial" font-size="10.00" fill="#ffffff">(0.04%)</text>
<text xml:space="preserve" text-anchor="middle" x="259.25" y="-594.5" font-family="Arial" font-size="10.00" fill="#ffffff">1×</text>
</a>
</g>
</g>
<!-- 6&#45;&gt;63 -->
<g id="edge1" class="edge">
<title>6&#45;&gt;63</title>
<path fill="none" stroke="#0c968c" stroke-width="1.07" d="M321.55,-685.75C311.27,-674.4 299.24,-661.13 288.52,-649.3"/>
<polygon fill="#0c968c" stroke="#0c968c" stroke-width="1.07" points="289.94,-648.15 285.1,-645.52 287.24,-650.6 289.94,-648.15"/>
<text xml:space="preserve" text-anchor="middle" x="329.6" y="-667.5" font-family="Arial" font-size="10.00" fill="#0c968c">26.68%</text>
<text xml:space="preserve" text-anchor="middle" x="329.6" y="-655.5" font-family="Arial" font-size="10.00" fill="#0c968c">1×</text>
</g>
<!-- 114 -->
<g id="node3" class="node">
<title>114</title>
<g id="a_node3"><a xlink:title="/Users/jzou/cs336/ass1/cs336_basics/train_bpe.py">
<polygon fill="#c9d706" stroke="#c9d706" points="515.38,-644 353.12,-644 353.12,-588 515.38,-588 515.38,-644"/>
<text xml:space="preserve" text-anchor="middle" x="434.25" y="-630.5" font-family="Arial" font-size="10.00" fill="#ffffff">train_bpe:109:pretokenize_corpus</text>
<text xml:space="preserve" text-anchor="middle" x="434.25" y="-618.5" font-family="Arial" font-size="10.00" fill="#ffffff">73.31%</text>
<text xml:space="preserve" text-anchor="middle" x="434.25" y="-606.5" font-family="Arial" font-size="10.00" fill="#ffffff">(0.07%)</text>
<text xml:space="preserve" text-anchor="middle" x="434.25" y="-594.5" font-family="Arial" font-size="10.00" fill="#ffffff">1×</text>
</a>
</g>
</g>
<!-- 6&#45;&gt;114 -->
<g id="edge2" class="edge">
<title>6&#45;&gt;114</title>
<path fill="none" stroke="#c9d706" stroke-width="2.93" d="M371.23,-685.75C380.34,-675.82 390.78,-664.42 400.52,-653.79"/>
<polygon fill="#c9d706" stroke="#c9d706" stroke-width="2.93" points="402.62,-655.96 406.21,-647.59 398.18,-651.9 402.62,-655.96"/>
<text xml:space="preserve" text-anchor="middle" x="417.22" y="-667.5" font-family="Arial" font-size="10.00" fill="#c9d706">73.31%</text>
<text xml:space="preserve" text-anchor="middle" x="417.22" y="-655.5" font-family="Arial" font-size="10.00" fill="#c9d706">1×</text>
</g>
<!-- 137 -->
<g id="node8" class="node">
<title>137</title>
<g id="a_node8"><a xlink:title="/Users/jzou/cs336/ass1/cs336_basics/train_bpe.py">
<polygon fill="#0c6b8b" stroke="#0c6b8b" points="181.75,-546 0.75,-546 0.75,-490 181.75,-490 181.75,-546"/>
<text xml:space="preserve" text-anchor="middle" x="91.25" y="-532.5" font-family="Arial" font-size="10.00" fill="#ffffff">train_bpe:238:_update_tokens_counts</text>
<text xml:space="preserve" text-anchor="middle" x="91.25" y="-520.5" font-family="Arial" font-size="10.00" fill="#ffffff">18.74%</text>
<text xml:space="preserve" text-anchor="middle" x="91.25" y="-508.5" font-family="Arial" font-size="10.00" fill="#ffffff">(14.11%)</text>
<text xml:space="preserve" text-anchor="middle" x="91.25" y="-496.5" font-family="Arial" font-size="10.00" fill="#ffffff">100×</text>
</a>
</g>
</g>
<!-- 63&#45;&gt;137 -->
<g id="edge6" class="edge">
<title>63&#45;&gt;137</title>
<path fill="none" stroke="#0c6b8b" stroke-width="0.75" d="M211.56,-587.75C190.46,-575.69 165.57,-561.47 143.92,-549.1"/>
<polygon fill="#0c6b8b" stroke="#0c6b8b" stroke-width="0.75" points="144.82,-547.88 140.34,-547.05 143.33,-550.49 144.82,-547.88"/>
<text xml:space="preserve" text-anchor="middle" x="211.74" y="-569.5" font-family="Arial" font-size="10.00" fill="#0c6b8b">18.74%</text>
<text xml:space="preserve" text-anchor="middle" x="211.74" y="-557.5" font-family="Arial" font-size="10.00" fill="#0c6b8b">100×</text>
</g>
<!-- 151 -->
<g id="node9" class="node">
<title>151</title>
<g id="a_node9"><a xlink:title="/Users/jzou/cs336/ass1/cs336_basics/train_bpe.py">
<polygon fill="#0d307d" stroke="#0d307d" points="379.88,-546 190.62,-546 190.62,-490 379.88,-490 379.88,-546"/>
<text xml:space="preserve" text-anchor="middle" x="285.25" y="-532.5" font-family="Arial" font-size="10.00" fill="#ffffff">train_bpe:163:_find_most_common_pair</text>
<text xml:space="preserve" text-anchor="middle" x="285.25" y="-520.5" font-family="Arial" font-size="10.00" fill="#ffffff">7.90%</text>
<text xml:space="preserve" text-anchor="middle" x="285.25" y="-508.5" font-family="Arial" font-size="10.00" fill="#ffffff">(7.32%)</text>
<text xml:space="preserve" text-anchor="middle" x="285.25" y="-496.5" font-family="Arial" font-size="10.00" fill="#ffffff">100×</text>
</a>
</g>
</g>
<!-- 63&#45;&gt;151 -->
<g id="edge7" class="edge">
<title>63&#45;&gt;151</title>
<path fill="none" stroke="#0d307d" stroke-width="0.5" d="M266.63,-587.75C269.79,-576.09 273.49,-562.42 276.76,-550.35"/>
<polygon fill="#0d307d" stroke="#0d307d" stroke-width="0.5" points="277.92,-550.75 277.65,-547.05 275.56,-550.11 277.92,-550.75"/>
<text xml:space="preserve" text-anchor="middle" x="289.22" y="-569.5" font-family="Arial" font-size="10.00" fill="#0d307d">7.90%</text>
<text xml:space="preserve" text-anchor="middle" x="289.22" y="-557.5" font-family="Arial" font-size="10.00" fill="#0d307d">100×</text>
</g>
<!-- 340 -->
<g id="node10" class="node">
<title>340</title>
<g id="a_node10"><a xlink:title="/opt/nflx/cpython&#45;3.11.13/lib/python3.11/multiprocessing/pool.py">
<polygon fill="#c8d706" stroke="#c8d706" points="471.5,-546 397,-546 397,-490 471.5,-490 471.5,-546"/>
<text xml:space="preserve" text-anchor="middle" x="434.25" y="-532.5" font-family="Arial" font-size="10.00" fill="#ffffff">pool:362:map</text>
<text xml:space="preserve" text-anchor="middle" x="434.25" y="-520.5" font-family="Arial" font-size="10.00" fill="#ffffff">73.18%</text>
<text xml:space="preserve" text-anchor="middle" x="434.25" y="-508.5" font-family="Arial" font-size="10.00" fill="#ffffff">(0.00%)</text>
<text xml:space="preserve" text-anchor="middle" x="434.25" y="-496.5" font-family="Arial" font-size="10.00" fill="#ffffff">1×</text>
</a>
</g>
</g>
<!-- 114&#45;&gt;340 -->
<g id="edge8" class="edge">
<title>114&#45;&gt;340</title>
<path fill="none" stroke="#c8d706" stroke-width="2.93" d="M434.25,-587.75C434.25,-578.83 434.25,-568.73 434.25,-559.07"/>
<polygon fill="#c8d706" stroke="#c8d706" stroke-width="2.93" points="437.26,-559.36 434.25,-550.76 431.24,-559.36 437.26,-559.36"/>
<text xml:space="preserve" text-anchor="middle" x="450.75" y="-569.5" font-family="Arial" font-size="10.00" fill="#c8d706">73.18%</text>
<text xml:space="preserve" text-anchor="middle" x="450.75" y="-557.5" font-family="Arial" font-size="10.00" fill="#c8d706">1×</text>
</g>
<!-- 30 -->
<g id="node4" class="node">
<title>30</title>
<g id="a_node4"><a xlink:title="/opt/nflx/cpython&#45;3.11.13/lib/python3.11/threading.py">
<polygon fill="#c8d706" stroke="#c8d706" points="482,-154 386.5,-154 386.5,-98 482,-98 482,-154"/>
<text xml:space="preserve" text-anchor="middle" x="434.25" y="-140.5" font-family="Arial" font-size="10.00" fill="#ffffff">threading:295:wait</text>
<text xml:space="preserve" text-anchor="middle" x="434.25" y="-128.5" font-family="Arial" font-size="10.00" fill="#ffffff">73.18%</text>
<text xml:space="preserve" text-anchor="middle" x="434.25" y="-116.5" font-family="Arial" font-size="10.00" fill="#ffffff">(0.00%)</text>
<text xml:space="preserve" text-anchor="middle" x="434.25" y="-104.5" font-family="Arial" font-size="10.00" fill="#ffffff">4×</text>
</a>
</g>
</g>
<!-- 286 -->
<g id="node5" class="node">
<title>286</title>
<g id="a_node5"><a xlink:title="~">
<polygon fill="#c8d706" stroke="#c8d706" points="545.75,-56 322.75,-56 322.75,0 545.75,0 545.75,-56"/>
<text xml:space="preserve" text-anchor="middle" x="434.25" y="-42.5" font-family="Arial" font-size="10.00" fill="#ffffff">~:0:&lt;method &#39;acquire&#39; of &#39;_thread.lock&#39; objects&gt;</text>
<text xml:space="preserve" text-anchor="middle" x="434.25" y="-30.5" font-family="Arial" font-size="10.00" fill="#ffffff">73.18%</text>
<text xml:space="preserve" text-anchor="middle" x="434.25" y="-18.5" font-family="Arial" font-size="10.00" fill="#ffffff">(73.18%)</text>
<text xml:space="preserve" text-anchor="middle" x="434.25" y="-6.5" font-family="Arial" font-size="10.00" fill="#ffffff">19×</text>
</a>
</g>
</g>
<!-- 30&#45;&gt;286 -->
<g id="edge3" class="edge">
<title>30&#45;&gt;286</title>
<path fill="none" stroke="#c8d706" stroke-width="2.93" d="M434.25,-97.75C434.25,-88.83 434.25,-78.73 434.25,-69.07"/>
<polygon fill="#c8d706" stroke="#c8d706" stroke-width="2.93" points="437.26,-69.36 434.25,-60.76 431.24,-69.36 437.26,-69.36"/>
<text xml:space="preserve" text-anchor="middle" x="450.75" y="-79.5" font-family="Arial" font-size="10.00" fill="#c8d706">73.18%</text>
<text xml:space="preserve" text-anchor="middle" x="450.75" y="-67.5" font-family="Arial" font-size="10.00" fill="#c8d706">8×</text>
</g>
<!-- 31 -->
<g id="node6" class="node">
<title>31</title>
<g id="a_node6"><a xlink:title="/opt/nflx/cpython&#45;3.11.13/lib/python3.11/threading.py">
<polygon fill="#c8d706" stroke="#c8d706" points="481.62,-252 386.88,-252 386.88,-196 481.62,-196 481.62,-252"/>
<text xml:space="preserve" text-anchor="middle" x="434.25" y="-238.5" font-family="Arial" font-size="10.00" fill="#ffffff">threading:611:wait</text>
<text xml:space="preserve" text-anchor="middle" x="434.25" y="-226.5" font-family="Arial" font-size="10.00" fill="#ffffff">73.18%</text>
<text xml:space="preserve" text-anchor="middle" x="434.25" y="-214.5" font-family="Arial" font-size="10.00" fill="#ffffff">(0.00%)</text>
<text xml:space="preserve" text-anchor="middle" x="434.25" y="-202.5" font-family="Arial" font-size="10.00" fill="#ffffff">4×</text>
</a>
</g>
</g>
<!-- 31&#45;&gt;30 -->
<g id="edge4" class="edge">
<title>31&#45;&gt;30</title>
<path fill="none" stroke="#c8d706" stroke-width="2.93" d="M434.25,-195.75C434.25,-186.83 434.25,-176.73 434.25,-167.07"/>
<polygon fill="#c8d706" stroke="#c8d706" stroke-width="2.93" points="437.26,-167.36 434.25,-158.76 431.24,-167.36 437.26,-167.36"/>
<text xml:space="preserve" text-anchor="middle" x="450.75" y="-177.5" font-family="Arial" font-size="10.00" fill="#c8d706">73.18%</text>
<text xml:space="preserve" text-anchor="middle" x="450.75" y="-165.5" font-family="Arial" font-size="10.00" fill="#c8d706">4×</text>
</g>
<!-- 32 -->
<g id="node7" class="node">
<title>32</title>
<g id="a_node7"><a xlink:title="/opt/nflx/cpython&#45;3.11.13/lib/python3.11/multiprocessing/pool.py">
<polygon fill="#c8d706" stroke="#c8d706" points="471.12,-350 397.38,-350 397.38,-294 471.12,-294 471.12,-350"/>
<text xml:space="preserve" text-anchor="middle" x="434.25" y="-336.5" font-family="Arial" font-size="10.00" fill="#ffffff">pool:764:wait</text>
<text xml:space="preserve" text-anchor="middle" x="434.25" y="-324.5" font-family="Arial" font-size="10.00" fill="#ffffff">73.18%</text>
<text xml:space="preserve" text-anchor="middle" x="434.25" y="-312.5" font-family="Arial" font-size="10.00" fill="#ffffff">(0.00%)</text>
<text xml:space="preserve" text-anchor="middle" x="434.25" y="-300.5" font-family="Arial" font-size="10.00" fill="#ffffff">1×</text>
</a>
</g>
</g>
<!-- 32&#45;&gt;31 -->
<g id="edge5" class="edge">
<title>32&#45;&gt;31</title>
<path fill="none" stroke="#c8d706" stroke-width="2.93" d="M434.25,-293.75C434.25,-284.83 434.25,-274.73 434.25,-265.07"/>
<polygon fill="#c8d706" stroke="#c8d706" stroke-width="2.93" points="437.26,-265.36 434.25,-256.76 431.24,-265.36 437.26,-265.36"/>
<text xml:space="preserve" text-anchor="middle" x="450.75" y="-275.5" font-family="Arial" font-size="10.00" fill="#c8d706">73.18%</text>
<text xml:space="preserve" text-anchor="middle" x="450.75" y="-263.5" font-family="Arial" font-size="10.00" fill="#c8d706">1×</text>
</g>
<!-- 133 -->
<g id="node11" class="node">
<title>133</title>
<g id="a_node11"><a xlink:title="~">
<polygon fill="#0d1274" stroke="#0d1274" points="182.5,-448 0,-448 0,-392 182.5,-392 182.5,-448"/>
<text xml:space="preserve" text-anchor="middle" x="91.25" y="-434.5" font-family="Arial" font-size="10.00" fill="#ffffff">~:0:&lt;method &#39;append&#39; of &#39;list&#39; objects&gt;</text>
<text xml:space="preserve" text-anchor="middle" x="91.25" y="-422.5" font-family="Arial" font-size="10.00" fill="#ffffff">1.35%</text>
<text xml:space="preserve" text-anchor="middle" x="91.25" y="-410.5" font-family="Arial" font-size="10.00" fill="#ffffff">(1.35%)</text>
<text xml:space="preserve" text-anchor="middle" x="91.25" y="-398.5" font-family="Arial" font-size="10.00" fill="#ffffff">35724360×</text>
</a>
</g>
</g>
<!-- 137&#45;&gt;133 -->
<g id="edge9" class="edge">
<title>137&#45;&gt;133</title>
<path fill="none" stroke="#0d1274" stroke-width="0.5" d="M91.25,-489.75C91.25,-478.09 91.25,-464.42 91.25,-452.35"/>
<polygon fill="#0d1274" stroke="#0d1274" stroke-width="0.5" points="92.48,-452.58 91.25,-449.08 90.03,-452.58 92.48,-452.58"/>
<text xml:space="preserve" text-anchor="middle" x="115.25" y="-471.5" font-family="Arial" font-size="10.00" fill="#0d1274">1.35%</text>
<text xml:space="preserve" text-anchor="middle" x="115.25" y="-459.5" font-family="Arial" font-size="10.00" fill="#0d1274">35724177×</text>
</g>
<!-- 215 -->
<g id="node12" class="node">
<title>215</title>
<g id="a_node12"><a xlink:title="~">
<polygon fill="#0d1d78" stroke="#0d1d78" points="354.5,-448 196,-448 196,-392 354.5,-392 354.5,-448"/>
<text xml:space="preserve" text-anchor="middle" x="275.25" y="-434.5" font-family="Arial" font-size="10.00" fill="#ffffff">~:0:&lt;built&#45;in method builtins.len&gt;</text>
<text xml:space="preserve" text-anchor="middle" x="275.25" y="-422.5" font-family="Arial" font-size="10.00" fill="#ffffff">3.79%</text>
<text xml:space="preserve" text-anchor="middle" x="275.25" y="-410.5" font-family="Arial" font-size="10.00" fill="#ffffff">(3.79%)</text>
<text xml:space="preserve" text-anchor="middle" x="275.25" y="-398.5" font-family="Arial" font-size="10.00" fill="#ffffff">95369478×</text>
</a>
</g>
</g>
<!-- 137&#45;&gt;215 -->
<g id="edge10" class="edge">
<title>137&#45;&gt;215</title>
<path fill="none" stroke="#0d1b77" stroke-width="0.5" d="M143.48,-489.75C167.08,-477.44 195,-462.87 219.05,-450.32"/>
<polygon fill="#0d1b77" stroke="#0d1b77" stroke-width="0.5" points="219.36,-451.54 221.89,-448.84 218.22,-449.37 219.36,-451.54"/>
<text xml:space="preserve" text-anchor="middle" x="229.14" y="-471.5" font-family="Arial" font-size="10.00" fill="#0d1b77">3.29%</text>
<text xml:space="preserve" text-anchor="middle" x="229.14" y="-459.5" font-family="Arial" font-size="10.00" fill="#0d1b77">83408814×</text>
</g>
<!-- 151&#45;&gt;215 -->
<g id="edge11" class="edge">
<title>151&#45;&gt;215</title>
<path fill="none" stroke="#0d0f73" stroke-width="0.5" d="M282.41,-489.75C281.2,-478.09 279.77,-464.42 278.52,-452.35"/>
<polygon fill="#0d0f73" stroke="#0d0f73" stroke-width="0.5" points="279.76,-452.43 278.17,-449.07 277.32,-452.68 279.76,-452.43"/>
<text xml:space="preserve" text-anchor="middle" x="305.06" y="-471.5" font-family="Arial" font-size="10.00" fill="#0d0f73">0.50%</text>
<text xml:space="preserve" text-anchor="middle" x="305.06" y="-459.5" font-family="Arial" font-size="10.00" fill="#0d0f73">11960460×</text>
</g>
<!-- 342 -->
<g id="node14" class="node">
<title>342</title>
<g id="a_node14"><a xlink:title="/opt/nflx/cpython&#45;3.11.13/lib/python3.11/multiprocessing/pool.py">
<polygon fill="#c8d706" stroke="#c8d706" points="468.88,-448 399.62,-448 399.62,-392 468.88,-392 468.88,-448"/>
<text xml:space="preserve" text-anchor="middle" x="434.25" y="-434.5" font-family="Arial" font-size="10.00" fill="#ffffff">pool:767:get</text>
<text xml:space="preserve" text-anchor="middle" x="434.25" y="-422.5" font-family="Arial" font-size="10.00" fill="#ffffff">73.18%</text>
<text xml:space="preserve" text-anchor="middle" x="434.25" y="-410.5" font-family="Arial" font-size="10.00" fill="#ffffff">(0.00%)</text>
<text xml:space="preserve" text-anchor="middle" x="434.25" y="-398.5" font-family="Arial" font-size="10.00" fill="#ffffff">1×</text>
</a>
</g>
</g>
<!-- 340&#45;&gt;342 -->
<g id="edge13" class="edge">
<title>340&#45;&gt;342</title>
<path fill="none" stroke="#c8d706" stroke-width="2.93" d="M434.25,-489.75C434.25,-480.83 434.25,-470.73 434.25,-461.07"/>
<polygon fill="#c8d706" stroke="#c8d706" stroke-width="2.93" points="437.26,-461.36 434.25,-452.76 431.24,-461.36 437.26,-461.36"/>
<text xml:space="preserve" text-anchor="middle" x="450.75" y="-471.5" font-family="Arial" font-size="10.00" fill="#c8d706">73.18%</text>
<text xml:space="preserve" text-anchor="middle" x="450.75" y="-459.5" font-family="Arial" font-size="10.00" fill="#c8d706">1×</text>
</g>
<!-- 218 -->
<g id="node13" class="node">
<title>218</title>
<g id="a_node13"><a xlink:title="/Users/jzou/cs336/ass1/scripts/train_bpe_cli.py">
<polygon fill="#ff0000" stroke="#ff0000" points="417.62,-840 274.88,-840 274.88,-784 417.62,-784 417.62,-840"/>
<text xml:space="preserve" text-anchor="middle" x="346.25" y="-826.5" font-family="Arial" font-size="10.00" fill="#ffffff">train_bpe_cli:159:run_training</text>
<text xml:space="preserve" text-anchor="middle" x="346.25" y="-814.5" font-family="Arial" font-size="10.00" fill="#ffffff">100.00%</text>
<text xml:space="preserve" text-anchor="middle" x="346.25" y="-802.5" font-family="Arial" font-size="10.00" fill="#ffffff">(0.00%)</text>
<text xml:space="preserve" text-anchor="middle" x="346.25" y="-790.5" font-family="Arial" font-size="10.00" fill="#ffffff">1×</text>
</a>
</g>
</g>
<!-- 218&#45;&gt;6 -->
<g id="edge12" class="edge">
<title>218&#45;&gt;6</title>
<path fill="none" stroke="#ff0000" stroke-width="4" d="M346.25,-783.75C346.25,-775.74 346.25,-766.78 346.25,-758.04"/>
<polygon fill="#ff0000" stroke="#ff0000" stroke-width="4" points="349.75,-758.38 346.25,-748.38 342.75,-758.38 349.75,-758.38"/>
<text xml:space="preserve" text-anchor="middle" x="365.38" y="-765.5" font-family="Arial" font-size="10.00" fill="#ff0000">100.00%</text>
<text xml:space="preserve" text-anchor="middle" x="365.38" y="-753.5" font-family="Arial" font-size="10.00" fill="#ff0000">1×</text>
</g>
<!-- 342&#45;&gt;32 -->
<g id="edge14" class="edge">
<title>342&#45;&gt;32</title>
<path fill="none" stroke="#c8d706" stroke-width="2.93" d="M434.25,-391.75C434.25,-382.83 434.25,-372.73 434.25,-363.07"/>
<polygon fill="#c8d706" stroke="#c8d706" stroke-width="2.93" points="437.26,-363.36 434.25,-354.76 431.24,-363.36 437.26,-363.36"/>
<text xml:space="preserve" text-anchor="middle" x="450.75" y="-373.5" font-family="Arial" font-size="10.00" fill="#c8d706">73.18%</text>
<text xml:space="preserve" text-anchor="middle" x="450.75" y="-361.5" font-family="Arial" font-size="10.00" fill="#c8d706">1×</text>
</g>
</g>
</svg>
