<?xml version="1.0" encoding="UTF-8" standalone="no"?>
<!DOCTYPE svg PUBLIC "-//W3C//DTD SVG 1.1//EN"
 "http://www.w3.org/Graphics/SVG/1.1/DTD/svg11.dtd">
<!-- Generated by graphviz version 13.1.0 (20250701.0955)
 -->
<!-- Pages: 1 -->
<svg width="1098pt" height="880pt"
 viewBox="0.00 0.00 1098.00 880.00" xmlns="http://www.w3.org/2000/svg" xmlns:xlink="http://www.w3.org/1999/xlink">
<g id="graph0" class="graph" transform="scale(1 1) rotate(0) translate(4 876)">
<g id="a_graph0"><a xlink:title=" ">
<polygon fill="white" stroke="none" points="-4,4 -4,-876 1094.25,-876 1094.25,4 -4,4"/>
</a>
</g>
<!-- 1 -->
<g id="node1" class="node">
<title>1</title>
<g id="a_node1"><a xlink:title="/Users/jzou/cs336/ass1/cs336_basics/train_bpe.py">
<polygon fill="#0c8f93" stroke="#0c8f93" points="503.12,-252 364.12,-252 364.12,-196 503.12,-196 503.12,-252"/>
<text xml:space="preserve" text-anchor="middle" x="433.62" y="-238.5" font-family="Arial" font-size="10.00" fill="#ffffff">train_bpe:366:_extract_pairs</text>
<text xml:space="preserve" text-anchor="middle" x="433.62" y="-226.5" font-family="Arial" font-size="10.00" fill="#ffffff">24.40%</text>
<text xml:space="preserve" text-anchor="middle" x="433.62" y="-214.5" font-family="Arial" font-size="10.00" fill="#ffffff">(2.19%)</text>
<text xml:space="preserve" text-anchor="middle" x="433.62" y="-202.5" font-family="Arial" font-size="10.00" fill="#ffffff">11792706×</text>
</a>
</g>
</g>
<!-- 11 -->
<g id="node2" class="node">
<title>11</title>
<g id="a_node2"><a xlink:title="/Users/jzou/cs336/ass1/cs336_basics/train_bpe.py">
<polygon fill="#0c7f8f" stroke="#0c7f8f" points="533.75,-154 407.5,-154 407.5,-98 533.75,-98 533.75,-154"/>
<text xml:space="preserve" text-anchor="middle" x="470.62" y="-140.5" font-family="Arial" font-size="10.00" fill="#ffffff">train_bpe:370:&lt;listcomp&gt;</text>
<text xml:space="preserve" text-anchor="middle" x="470.62" y="-128.5" font-family="Arial" font-size="10.00" fill="#ffffff">21.85%</text>
<text xml:space="preserve" text-anchor="middle" x="470.62" y="-116.5" font-family="Arial" font-size="10.00" fill="#ffffff">(21.85%)</text>
<text xml:space="preserve" text-anchor="middle" x="470.62" y="-104.5" font-family="Arial" font-size="10.00" fill="#ffffff">11792601×</text>
</a>
</g>
</g>
<!-- 1&#45;&gt;11 -->
<g id="edge1" class="edge">
<title>1&#45;&gt;11</title>
<path fill="none" stroke="#0c7f8f" stroke-width="0.87" d="M444.13,-195.75C448.43,-184.6 453.43,-171.6 457.93,-159.93"/>
<polygon fill="#0c7f8f" stroke="#0c7f8f" stroke-width="0.87" points="459.47,-160.53 459.62,-155.55 456.4,-159.34 459.47,-160.53"/>
<text xml:space="preserve" text-anchor="middle" x="480.15" y="-177.5" font-family="Arial" font-size="10.00" fill="#0c7f8f">21.85%</text>
<text xml:space="preserve" text-anchor="middle" x="480.15" y="-165.5" font-family="Arial" font-size="10.00" fill="#0c7f8f">11792601×</text>
</g>
<!-- 44 -->
<g id="node3" class="node">
<title>44</title>
<g id="a_node3"><a xlink:title="~">
<polygon fill="#0d1274" stroke="#0d1274" points="895.88,-154 737.38,-154 737.38,-98 895.88,-98 895.88,-154"/>
<text xml:space="preserve" text-anchor="middle" x="816.62" y="-140.5" font-family="Arial" font-size="10.00" fill="#ffffff">~:0:&lt;built&#45;in method builtins.len&gt;</text>
<text xml:space="preserve" text-anchor="middle" x="816.62" y="-128.5" font-family="Arial" font-size="10.00" fill="#ffffff">1.16%</text>
<text xml:space="preserve" text-anchor="middle" x="816.62" y="-116.5" font-family="Arial" font-size="10.00" fill="#ffffff">(1.16%)</text>
<text xml:space="preserve" text-anchor="middle" x="816.62" y="-104.5" font-family="Arial" font-size="10.00" fill="#ffffff">81963487×</text>
</a>
</g>
</g>
<!-- 1&#45;&gt;44 -->
<g id="edge2" class="edge">
<title>1&#45;&gt;44</title>
<path fill="none" stroke="#0d0e73" stroke-width="0.5" d="M503.26,-197.31C504.72,-196.86 506.18,-196.42 507.62,-196 582.99,-173.94 670.47,-155.01 733.07,-142.59"/>
<polygon fill="#0d0e73" stroke="#0d0e73" stroke-width="0.5" points="733.22,-143.81 736.42,-141.93 732.75,-141.41 733.22,-143.81"/>
<text xml:space="preserve" text-anchor="middle" x="657.93" y="-177.5" font-family="Arial" font-size="10.00" fill="#0d0e73">0.37%</text>
<text xml:space="preserve" text-anchor="middle" x="657.93" y="-165.5" font-family="Arial" font-size="10.00" fill="#0d0e73">23585307×</text>
</g>
<!-- 2 -->
<g id="node4" class="node">
<title>2</title>
<g id="a_node4"><a xlink:title="/Users/jzou/cs336/ass1/cs336_basics/train_bpe.py">
<polygon fill="#0ba068" stroke="#0ba068" points="325.12,-382 72.12,-382 72.12,-326 325.12,-326 325.12,-382"/>
<text xml:space="preserve" text-anchor="middle" x="198.62" y="-368.5" font-family="Arial" font-size="10.00" fill="#ffffff">train_bpe:500:_remove_token_from_tracking_by_index</text>
<text xml:space="preserve" text-anchor="middle" x="198.62" y="-356.5" font-family="Arial" font-size="10.00" fill="#ffffff">34.41%</text>
<text xml:space="preserve" text-anchor="middle" x="198.62" y="-344.5" font-family="Arial" font-size="10.00" fill="#ffffff">(3.89%)</text>
<text xml:space="preserve" text-anchor="middle" x="198.62" y="-332.5" font-family="Arial" font-size="10.00" fill="#ffffff">2595407×</text>
</a>
</g>
</g>
<!-- 2&#45;&gt;1 -->
<g id="edge3" class="edge">
<title>2&#45;&gt;1</title>
<path fill="none" stroke="#0d387f" stroke-width="0.5" d="M325.52,-327.47C330.85,-324.36 335.92,-320.89 340.62,-317 361.82,-299.5 347.99,-280.98 366.88,-261 368.86,-258.89 371.01,-256.89 373.26,-254.97"/>
<polygon fill="#0d387f" stroke="#0d387f" stroke-width="0.5" points="373.86,-256.06 375.8,-252.9 372.32,-254.16 373.86,-256.06"/>
<text xml:space="preserve" text-anchor="middle" x="388.25" y="-291.5" font-family="Arial" font-size="10.00" fill="#0d387f">9.52%</text>
<text xml:space="preserve" text-anchor="middle" x="388.25" y="-279.5" font-family="Arial" font-size="10.00" fill="#0d387f">2595407×</text>
</g>
<!-- 8 -->
<g id="node5" class="node">
<title>8</title>
<g id="a_node5"><a xlink:title="/Users/jzou/cs336/ass1/cs336_basics/train_bpe.py">
<polygon fill="#0ba262" stroke="#0ba262" points="354.75,-252 192.5,-252 192.5,-196 354.75,-196 354.75,-252"/>
<text xml:space="preserve" text-anchor="middle" x="273.62" y="-238.5" font-family="Arial" font-size="10.00" fill="#ffffff">train_bpe:401:_update_pair_count</text>
<text xml:space="preserve" text-anchor="middle" x="273.62" y="-226.5" font-family="Arial" font-size="10.00" fill="#ffffff">35.50%</text>
<text xml:space="preserve" text-anchor="middle" x="273.62" y="-214.5" font-family="Arial" font-size="10.00" fill="#ffffff">(24.41%)</text>
<text xml:space="preserve" text-anchor="middle" x="273.62" y="-202.5" font-family="Arial" font-size="10.00" fill="#ffffff">50696811×</text>
</a>
</g>
</g>
<!-- 2&#45;&gt;8 -->
<g id="edge4" class="edge">
<title>2&#45;&gt;8</title>
<path fill="none" stroke="#0c6d8b" stroke-width="0.76" d="M201.58,-325.63C204.76,-306.19 211.29,-280.23 224.62,-261 225.78,-259.34 227.03,-257.73 228.36,-256.17"/>
<polygon fill="#0c6d8b" stroke="#0c6d8b" stroke-width="0.76" points="229.43,-257.27 231.28,-252.99 227.17,-255.19 229.43,-257.27"/>
<text xml:space="preserve" text-anchor="middle" x="248.62" y="-291.5" font-family="Arial" font-size="10.00" fill="#0c6d8b">18.97%</text>
<text xml:space="preserve" text-anchor="middle" x="248.62" y="-279.5" font-family="Arial" font-size="10.00" fill="#0c6d8b">26698544×</text>
</g>
<!-- 31 -->
<g id="node6" class="node">
<title>31</title>
<g id="a_node6"><a xlink:title="~">
<polygon fill="#0d1575" stroke="#0d1575" points="183.25,-252 0,-252 0,-196 183.25,-196 183.25,-252"/>
<text xml:space="preserve" text-anchor="middle" x="91.62" y="-238.5" font-family="Arial" font-size="10.00" fill="#ffffff">~:0:&lt;method &#39;discard&#39; of &#39;set&#39; objects&gt;</text>
<text xml:space="preserve" text-anchor="middle" x="91.62" y="-226.5" font-family="Arial" font-size="10.00" fill="#ffffff">2.03%</text>
<text xml:space="preserve" text-anchor="middle" x="91.62" y="-214.5" font-family="Arial" font-size="10.00" fill="#ffffff">(2.03%)</text>
<text xml:space="preserve" text-anchor="middle" x="91.62" y="-202.5" font-family="Arial" font-size="10.00" fill="#ffffff">26698544×</text>
</a>
</g>
</g>
<!-- 2&#45;&gt;31 -->
<g id="edge5" class="edge">
<title>2&#45;&gt;31</title>
<path fill="none" stroke="#0d1575" stroke-width="0.5" d="M162.37,-325.65C159.3,-322.85 156.34,-319.94 153.62,-317 136.35,-298.25 120.37,-274.3 108.96,-255.54"/>
<polygon fill="#0d1575" stroke="#0d1575" stroke-width="0.5" points="110.27,-255.35 107.41,-252.98 108.18,-256.61 110.27,-255.35"/>
<text xml:space="preserve" text-anchor="middle" x="177.62" y="-291.5" font-family="Arial" font-size="10.00" fill="#0d1575">2.03%</text>
<text xml:space="preserve" text-anchor="middle" x="177.62" y="-279.5" font-family="Arial" font-size="10.00" fill="#0d1575">26698544×</text>
</g>
<!-- 6 -->
<g id="node12" class="node">
<title>6</title>
<g id="a_node12"><a xlink:title="~">
<polygon fill="#0d387f" stroke="#0d387f" points="283.88,-154 95.38,-154 95.38,-98 283.88,-98 283.88,-154"/>
<text xml:space="preserve" text-anchor="middle" x="189.62" y="-140.5" font-family="Arial" font-size="10.00" fill="#ffffff">~:0:&lt;built&#45;in method _heapq.heappush&gt;</text>
<text xml:space="preserve" text-anchor="middle" x="189.62" y="-128.5" font-family="Arial" font-size="10.00" fill="#ffffff">9.57%</text>
<text xml:space="preserve" text-anchor="middle" x="189.62" y="-116.5" font-family="Arial" font-size="10.00" fill="#ffffff">(4.97%)</text>
<text xml:space="preserve" text-anchor="middle" x="189.62" y="-104.5" font-family="Arial" font-size="10.00" fill="#ffffff">50716325×</text>
</a>
</g>
</g>
<!-- 8&#45;&gt;6 -->
<g id="edge14" class="edge">
<title>8&#45;&gt;6</title>
<path fill="none" stroke="#0d387f" stroke-width="0.5" d="M249.78,-195.75C239.32,-183.79 226.99,-169.7 216.23,-157.41"/>
<polygon fill="#0d387f" stroke="#0d387f" stroke-width="0.5" points="217.26,-156.72 214.03,-154.89 215.41,-158.33 217.26,-156.72"/>
<text xml:space="preserve" text-anchor="middle" x="265.62" y="-177.5" font-family="Arial" font-size="10.00" fill="#0d387f">9.57%</text>
<text xml:space="preserve" text-anchor="middle" x="265.62" y="-165.5" font-family="Arial" font-size="10.00" fill="#0d387f">50696733×</text>
</g>
<!-- 17 -->
<g id="node14" class="node">
<title>17</title>
<g id="a_node14"><a xlink:title="/Users/jzou/cs336/ass1/cs336_basics/train_bpe.py">
<polygon fill="#0d1375" stroke="#0d1375" points="398.62,-154 292.62,-154 292.62,-98 398.62,-98 398.62,-154"/>
<text xml:space="preserve" text-anchor="middle" x="345.62" y="-140.5" font-family="Arial" font-size="10.00" fill="#ffffff">train_bpe:15:__init__</text>
<text xml:space="preserve" text-anchor="middle" x="345.62" y="-128.5" font-family="Arial" font-size="10.00" fill="#ffffff">1.52%</text>
<text xml:space="preserve" text-anchor="middle" x="345.62" y="-116.5" font-family="Arial" font-size="10.00" fill="#ffffff">(1.52%)</text>
<text xml:space="preserve" text-anchor="middle" x="345.62" y="-104.5" font-family="Arial" font-size="10.00" fill="#ffffff">50716325×</text>
</a>
</g>
</g>
<!-- 8&#45;&gt;17 -->
<g id="edge15" class="edge">
<title>8&#45;&gt;17</title>
<path fill="none" stroke="#0d1375" stroke-width="0.5" d="M294.06,-195.75C302.96,-183.89 313.42,-169.94 322.59,-157.72"/>
<polygon fill="#0d1375" stroke="#0d1375" stroke-width="0.5" points="323.56,-158.46 324.68,-154.93 321.6,-156.99 323.56,-158.46"/>
<text xml:space="preserve" text-anchor="middle" x="342.19" y="-177.5" font-family="Arial" font-size="10.00" fill="#0d1375">1.52%</text>
<text xml:space="preserve" text-anchor="middle" x="342.19" y="-165.5" font-family="Arial" font-size="10.00" fill="#0d1375">50696733×</text>
</g>
<!-- 3 -->
<g id="node7" class="node">
<title>3</title>
<g id="a_node7"><a xlink:title="/Users/jzou/cs336/ass1/cs336_basics/train_bpe.py">
<polygon fill="#0d4e84" stroke="#0d4e84" points="685.38,-382 493.88,-382 493.88,-326 685.38,-326 685.38,-382"/>
<text xml:space="preserve" text-anchor="middle" x="589.62" y="-368.5" font-family="Arial" font-size="10.00" fill="#ffffff">train_bpe:373:_build_initial_pair_tracking</text>
<text xml:space="preserve" text-anchor="middle" x="589.62" y="-356.5" font-family="Arial" font-size="10.00" fill="#ffffff">13.69%</text>
<text xml:space="preserve" text-anchor="middle" x="589.62" y="-344.5" font-family="Arial" font-size="10.00" fill="#ffffff">(7.34%)</text>
<text xml:space="preserve" text-anchor="middle" x="589.62" y="-332.5" font-family="Arial" font-size="10.00" fill="#ffffff">1×</text>
</a>
</g>
</g>
<!-- 3&#45;&gt;1 -->
<g id="edge6" class="edge">
<title>3&#45;&gt;1</title>
<path fill="none" stroke="#0d1a77" stroke-width="0.5" d="M493.59,-326.6C486.64,-323.49 481.1,-320.26 477.88,-317 459.58,-298.47 472.45,-284.21 460.62,-261 459.74,-259.26 458.77,-257.52 457.74,-255.8"/>
<polygon fill="#0d1a77" stroke="#0d1a77" stroke-width="0.5" points="458.85,-255.25 455.96,-252.92 456.77,-256.54 458.85,-255.25"/>
<text xml:space="preserve" text-anchor="middle" x="499.25" y="-291.5" font-family="Arial" font-size="10.00" fill="#0d1a77">3.17%</text>
<text xml:space="preserve" text-anchor="middle" x="499.25" y="-279.5" font-family="Arial" font-size="10.00" fill="#0d1a77">6601892×</text>
</g>
<!-- 30 -->
<g id="node8" class="node">
<title>30</title>
<g id="a_node8"><a xlink:title="~">
<polygon fill="#0d2279" stroke="#0d2279" points="679.38,-252 511.88,-252 511.88,-196 679.38,-196 679.38,-252"/>
<text xml:space="preserve" text-anchor="middle" x="595.62" y="-238.5" font-family="Arial" font-size="10.00" fill="#ffffff">~:0:&lt;method &#39;add&#39; of &#39;set&#39; objects&gt;</text>
<text xml:space="preserve" text-anchor="middle" x="595.62" y="-226.5" font-family="Arial" font-size="10.00" fill="#ffffff">4.95%</text>
<text xml:space="preserve" text-anchor="middle" x="595.62" y="-214.5" font-family="Arial" font-size="10.00" fill="#ffffff">(4.95%)</text>
<text xml:space="preserve" text-anchor="middle" x="595.62" y="-202.5" font-family="Arial" font-size="10.00" fill="#ffffff">81192327×</text>
</a>
</g>
</g>
<!-- 3&#45;&gt;30 -->
<g id="edge7" class="edge">
<title>3&#45;&gt;30</title>
<path fill="none" stroke="#0d1a77" stroke-width="0.5" d="M590.91,-325.54C591.86,-305.29 593.15,-277.71 594.15,-256.55"/>
<polygon fill="#0d1a77" stroke="#0d1a77" stroke-width="0.5" points="595.36,-256.72 594.3,-253.17 592.92,-256.61 595.36,-256.72"/>
<text xml:space="preserve" text-anchor="middle" x="617.85" y="-291.5" font-family="Arial" font-size="10.00" fill="#0d1a77">3.17%</text>
<text xml:space="preserve" text-anchor="middle" x="617.85" y="-279.5" font-family="Arial" font-size="10.00" fill="#0d1a77">57194060×</text>
</g>
<!-- 4 -->
<g id="node9" class="node">
<title>4</title>
<g id="a_node9"><a xlink:title="/Users/jzou/cs336/ass1/cs336_basics/train_bpe.py">
<polygon fill="#0ba06a" stroke="#0ba06a" points="485.12,-382 334.12,-382 334.12,-326 485.12,-326 485.12,-382"/>
<text xml:space="preserve" text-anchor="middle" x="409.62" y="-368.5" font-family="Arial" font-size="10.00" fill="#ffffff">train_bpe:514:_add_new_token</text>
<text xml:space="preserve" text-anchor="middle" x="409.62" y="-356.5" font-family="Arial" font-size="10.00" fill="#ffffff">34.09%</text>
<text xml:space="preserve" text-anchor="middle" x="409.62" y="-344.5" font-family="Arial" font-size="10.00" fill="#ffffff">(3.88%)</text>
<text xml:space="preserve" text-anchor="middle" x="409.62" y="-332.5" font-family="Arial" font-size="10.00" fill="#ffffff">2595407×</text>
</a>
</g>
</g>
<!-- 4&#45;&gt;1 -->
<g id="edge8" class="edge">
<title>4&#45;&gt;1</title>
<path fill="none" stroke="#0d4482" stroke-width="0.5" d="M410.85,-325.71C412.12,-307.24 414.69,-282.4 419.88,-261 420.27,-259.39 420.71,-257.76 421.19,-256.12"/>
<polygon fill="#0d4482" stroke="#0d4482" stroke-width="0.5" points="422.29,-256.72 422.16,-253.01 419.95,-255.99 422.29,-256.72"/>
<text xml:space="preserve" text-anchor="middle" x="441.25" y="-291.5" font-family="Arial" font-size="10.00" fill="#0d4482">11.71%</text>
<text xml:space="preserve" text-anchor="middle" x="441.25" y="-279.5" font-family="Arial" font-size="10.00" fill="#0d4482">2595407×</text>
</g>
<!-- 4&#45;&gt;8 -->
<g id="edge9" class="edge">
<title>4&#45;&gt;8</title>
<path fill="none" stroke="#0c5e88" stroke-width="0.66" d="M333.87,-327.28C332.45,-326.84 331.03,-326.42 329.62,-326 314.23,-321.43 305.83,-328.51 294.62,-317 279.35,-301.3 274.3,-276.92 272.97,-257.19"/>
<polygon fill="#0c5e88" stroke="#0c5e88" stroke-width="0.66" points="274.41,-257.3 272.76,-253.28 271.54,-257.46 274.41,-257.3"/>
<text xml:space="preserve" text-anchor="middle" x="318.62" y="-291.5" font-family="Arial" font-size="10.00" fill="#0c5e88">16.52%</text>
<text xml:space="preserve" text-anchor="middle" x="318.62" y="-279.5" font-family="Arial" font-size="10.00" fill="#0c5e88">23998267×</text>
</g>
<!-- 4&#45;&gt;30 -->
<g id="edge11" class="edge">
<title>4&#45;&gt;30</title>
<path fill="none" stroke="#0d1475" stroke-width="0.5" d="M485.41,-327.37C486.82,-326.91 488.23,-326.45 489.62,-326 502.46,-321.84 508.67,-326.11 518.62,-317 538.48,-298.84 524.58,-281.82 541.62,-261 543.26,-259 545.05,-257.07 546.93,-255.21"/>
<polygon fill="#0d1475" stroke="#0d1475" stroke-width="0.5" points="547.71,-256.16 549.41,-252.86 546.03,-254.37 547.71,-256.16"/>
<text xml:space="preserve" text-anchor="middle" x="565.62" y="-291.5" font-family="Arial" font-size="10.00" fill="#0d1475">1.77%</text>
<text xml:space="preserve" text-anchor="middle" x="565.62" y="-279.5" font-family="Arial" font-size="10.00" fill="#0d1475">23998267×</text>
</g>
<!-- 24 -->
<g id="node10" class="node">
<title>24</title>
<g id="a_node10"><a xlink:title="~">
<polygon fill="#0d1074" stroke="#0d1074" points="878.88,-252 696.38,-252 696.38,-196 878.88,-196 878.88,-252"/>
<text xml:space="preserve" text-anchor="middle" x="787.62" y="-238.5" font-family="Arial" font-size="10.00" fill="#ffffff">~:0:&lt;method &#39;append&#39; of &#39;list&#39; objects&gt;</text>
<text xml:space="preserve" text-anchor="middle" x="787.62" y="-226.5" font-family="Arial" font-size="10.00" fill="#ffffff">0.90%</text>
<text xml:space="preserve" text-anchor="middle" x="787.62" y="-214.5" font-family="Arial" font-size="10.00" fill="#ffffff">(0.90%)</text>
<text xml:space="preserve" text-anchor="middle" x="787.62" y="-202.5" font-family="Arial" font-size="10.00" fill="#ffffff">59376394×</text>
</a>
</g>
</g>
<!-- 4&#45;&gt;24 -->
<g id="edge10" class="edge">
<title>4&#45;&gt;24</title>
<path fill="none" stroke="#0d0d73" stroke-width="0.5" d="M485.28,-326.89C486.74,-326.58 488.19,-326.28 489.62,-326 556.93,-312.92 578.4,-338.14 643.62,-317 665.09,-310.04 711.87,-278.88 746.32,-254.73"/>
<polygon fill="#0d0d73" stroke="#0d0d73" stroke-width="0.5" points="746.84,-255.86 749,-252.85 745.43,-253.86 746.84,-255.86"/>
<text xml:space="preserve" text-anchor="middle" x="758" y="-291.5" font-family="Arial" font-size="10.00" fill="#0d0d73">0.15%</text>
<text xml:space="preserve" text-anchor="middle" x="758" y="-279.5" font-family="Arial" font-size="10.00" fill="#0d0d73">7786221×</text>
</g>
<!-- 5 -->
<g id="node11" class="node">
<title>5</title>
<g id="a_node11"><a xlink:title="/Users/jzou/cs336/ass1/cs336_basics/train_bpe.py">
<polygon fill="#0d297b" stroke="#0d297b" points="651.88,-56 553.38,-56 553.38,0 651.88,0 651.88,-56"/>
<text xml:space="preserve" text-anchor="middle" x="602.62" y="-42.5" font-family="Arial" font-size="10.00" fill="#ffffff">train_bpe:19:__lt__</text>
<text xml:space="preserve" text-anchor="middle" x="602.62" y="-30.5" font-family="Arial" font-size="10.00" fill="#ffffff">6.40%</text>
<text xml:space="preserve" text-anchor="middle" x="602.62" y="-18.5" font-family="Arial" font-size="10.00" fill="#ffffff">(6.40%)</text>
<text xml:space="preserve" text-anchor="middle" x="602.62" y="-6.5" font-family="Arial" font-size="10.00" fill="#ffffff">138778942×</text>
</a>
</g>
</g>
<!-- 6&#45;&gt;5 -->
<g id="edge12" class="edge">
<title>6&#45;&gt;5</title>
<path fill="none" stroke="#0d2179" stroke-width="0.5" d="M284.18,-99.1C285.67,-98.73 287.15,-98.36 288.62,-98 379.58,-75.62 486.22,-52.93 548.89,-39.95"/>
<polygon fill="#0d2179" stroke="#0d2179" stroke-width="0.5" points="549.04,-41.18 552.22,-39.27 548.54,-38.78 549.04,-41.18"/>
<text xml:space="preserve" text-anchor="middle" x="452.72" y="-79.5" font-family="Arial" font-size="10.00" fill="#0d2179">4.59%</text>
<text xml:space="preserve" text-anchor="middle" x="452.72" y="-67.5" font-family="Arial" font-size="10.00" fill="#0d2179">109260677×</text>
</g>
<!-- 7 -->
<g id="node13" class="node">
<title>7</title>
<g id="a_node13"><a xlink:title="~">
<polygon fill="#0d1c77" stroke="#0d1c77" points="1090.25,-317 907,-317 907,-261 1090.25,-261 1090.25,-317"/>
<text xml:space="preserve" text-anchor="middle" x="998.62" y="-303.5" font-family="Arial" font-size="10.00" fill="#ffffff">~:0:&lt;built&#45;in method _heapq.heappop&gt;</text>
<text xml:space="preserve" text-anchor="middle" x="998.62" y="-291.5" font-family="Arial" font-size="10.00" fill="#ffffff">3.59%</text>
<text xml:space="preserve" text-anchor="middle" x="998.62" y="-279.5" font-family="Arial" font-size="10.00" fill="#ffffff">(1.78%)</text>
<text xml:space="preserve" text-anchor="middle" x="998.62" y="-267.5" font-family="Arial" font-size="10.00" fill="#ffffff">1181600×</text>
</a>
</g>
</g>
<!-- 7&#45;&gt;5 -->
<g id="edge13" class="edge">
<title>7&#45;&gt;5</title>
<path fill="none" stroke="#0d1475" stroke-width="0.5" d="M992.34,-260.63C981.28,-218.87 954.24,-139.7 900.62,-98 829.26,-42.49 721,-30.29 656.5,-28.35"/>
<polygon fill="#0d1475" stroke="#0d1475" stroke-width="0.5" points="656.6,-27.13 653.07,-28.26 656.53,-29.58 656.6,-27.13"/>
<text xml:space="preserve" text-anchor="middle" x="989.41" y="-177.5" font-family="Arial" font-size="10.00" fill="#0d1475">1.81%</text>
<text xml:space="preserve" text-anchor="middle" x="989.41" y="-165.5" font-family="Arial" font-size="10.00" fill="#0d1475">29518265×</text>
</g>
<!-- 9 -->
<g id="node15" class="node">
<title>9</title>
<g id="a_node15"><a xlink:title="/Users/jzou/cs336/ass1/cs336_basics/train_bpe.py">
<polygon fill="#0d1d78" stroke="#0d1d78" points="1018.62,-480 834.62,-480 834.62,-424 1018.62,-424 1018.62,-480"/>
<text xml:space="preserve" text-anchor="middle" x="926.62" y="-466.5" font-family="Arial" font-size="10.00" fill="#ffffff">train_bpe:420:find_most_common_pair</text>
<text xml:space="preserve" text-anchor="middle" x="926.62" y="-454.5" font-family="Arial" font-size="10.00" fill="#ffffff">3.84%</text>
<text xml:space="preserve" text-anchor="middle" x="926.62" y="-442.5" font-family="Arial" font-size="10.00" fill="#ffffff">(0.21%)</text>
<text xml:space="preserve" text-anchor="middle" x="926.62" y="-430.5" font-family="Arial" font-size="10.00" fill="#ffffff">9×</text>
</a>
</g>
</g>
<!-- 9&#45;&gt;7 -->
<g id="edge16" class="edge">
<title>9&#45;&gt;7</title>
<path fill="none" stroke="#0d1c77" stroke-width="0.5" d="M938.84,-423.69C951.56,-395.24 971.46,-350.75 984.76,-321"/>
<polygon fill="#0d1c77" stroke="#0d1c77" stroke-width="0.5" points="985.73,-321.83 986.04,-318.14 983.5,-320.83 985.73,-321.83"/>
<text xml:space="preserve" text-anchor="middle" x="972.97" y="-405.5" font-family="Arial" font-size="10.00" fill="#0d1c77">3.59%</text>
<text xml:space="preserve" text-anchor="middle" x="972.97" y="-393.5" font-family="Arial" font-size="10.00" fill="#0d1c77">1181600×</text>
</g>
<!-- 10 -->
<g id="node16" class="node">
<title>10</title>
<g id="a_node16"><a xlink:title="/Users/jzou/cs336/ass1/cs336_basics/train_bpe.py">
<polygon fill="#dbd105" stroke="#dbd105" points="598,-480 401.25,-480 401.25,-424 598,-424 598,-480"/>
<text xml:space="preserve" text-anchor="middle" x="499.62" y="-466.5" font-family="Arial" font-size="10.00" fill="#ffffff">train_bpe:453:update_tokens_incremental</text>
<text xml:space="preserve" text-anchor="middle" x="499.62" y="-454.5" font-family="Arial" font-size="10.00" fill="#ffffff">76.27%</text>
<text xml:space="preserve" text-anchor="middle" x="499.62" y="-442.5" font-family="Arial" font-size="10.00" fill="#ffffff">(1.66%)</text>
<text xml:space="preserve" text-anchor="middle" x="499.62" y="-430.5" font-family="Arial" font-size="10.00" fill="#ffffff">9×</text>
</a>
</g>
</g>
<!-- 10&#45;&gt;2 -->
<g id="edge17" class="edge">
<title>10&#45;&gt;2</title>
<path fill="none" stroke="#0ba068" stroke-width="1.38" d="M413.77,-423.62C375.66,-411.46 330.71,-397.13 291.79,-384.71"/>
<polygon fill="#0ba068" stroke="#0ba068" stroke-width="1.38" points="292.83,-382.88 286.58,-383.05 291.57,-386.81 292.83,-382.88"/>
<text xml:space="preserve" text-anchor="middle" x="406.31" y="-405.5" font-family="Arial" font-size="10.00" fill="#0ba068">34.41%</text>
<text xml:space="preserve" text-anchor="middle" x="406.31" y="-393.5" font-family="Arial" font-size="10.00" fill="#0ba068">2595407×</text>
</g>
<!-- 10&#45;&gt;4 -->
<g id="edge18" class="edge">
<title>10&#45;&gt;4</title>
<path fill="none" stroke="#0ba06a" stroke-width="1.36" d="M474.08,-423.75C463.62,-412.6 451.44,-399.6 440.5,-387.93"/>
<polygon fill="#0ba06a" stroke="#0ba06a" stroke-width="1.36" points="442.09,-386.67 436.65,-383.82 439.13,-389.44 442.09,-386.67"/>
<text xml:space="preserve" text-anchor="middle" x="486.71" y="-405.5" font-family="Arial" font-size="10.00" fill="#0ba06a">34.09%</text>
<text xml:space="preserve" text-anchor="middle" x="486.71" y="-393.5" font-family="Arial" font-size="10.00" fill="#0ba06a">2595407×</text>
</g>
<!-- 14 -->
<g id="node17" class="node">
<title>14</title>
<g id="a_node17"><a xlink:title="/Users/jzou/cs336/ass1/cs336_basics/train_bpe.py">
<polygon fill="#0d277a" stroke="#0d277a" points="884.62,-382 694.62,-382 694.62,-326 884.62,-326 884.62,-382"/>
<text xml:space="preserve" text-anchor="middle" x="789.62" y="-368.5" font-family="Arial" font-size="10.00" fill="#ffffff">train_bpe:529:_perform_merge_in_token</text>
<text xml:space="preserve" text-anchor="middle" x="789.62" y="-356.5" font-family="Arial" font-size="10.00" fill="#ffffff">6.04%</text>
<text xml:space="preserve" text-anchor="middle" x="789.62" y="-344.5" font-family="Arial" font-size="10.00" fill="#ffffff">(4.90%)</text>
<text xml:space="preserve" text-anchor="middle" x="789.62" y="-332.5" font-family="Arial" font-size="10.00" fill="#ffffff">2595407×</text>
</a>
</g>
</g>
<!-- 10&#45;&gt;14 -->
<g id="edge19" class="edge">
<title>10&#45;&gt;14</title>
<path fill="none" stroke="#0d277a" stroke-width="0.5" d="M598.39,-428.16C605.56,-426.69 612.7,-425.29 619.62,-424 646.57,-418.99 654.65,-423.75 680.62,-415 702.78,-407.54 725.69,-395.66 744.75,-384.43"/>
<polygon fill="#0d277a" stroke="#0d277a" stroke-width="0.5" points="744.98,-385.72 747.37,-382.88 743.73,-383.61 744.98,-385.72"/>
<text xml:space="preserve" text-anchor="middle" x="754.52" y="-405.5" font-family="Arial" font-size="10.00" fill="#0d277a">6.04%</text>
<text xml:space="preserve" text-anchor="middle" x="754.52" y="-393.5" font-family="Arial" font-size="10.00" fill="#0d277a">2595407×</text>
</g>
<!-- 14&#45;&gt;44 -->
<g id="edge23" class="edge">
<title>14&#45;&gt;44</title>
<path fill="none" stroke="#0d1074" stroke-width="0.5" d="M829.12,-325.83C832.46,-322.99 835.68,-320.03 838.62,-317 863.12,-291.81 873.15,-285.54 883.62,-252 891.05,-228.24 892.98,-219.06 883.62,-196 877.67,-181.31 866.91,-168.02 855.73,-157.12"/>
<polygon fill="#0d1074" stroke="#0d1074" stroke-width="0.5" points="856.81,-156.46 853.43,-154.92 855.12,-158.23 856.81,-156.46"/>
<text xml:space="preserve" text-anchor="middle" x="913.94" y="-226.5" font-family="Arial" font-size="10.00" fill="#0d1074">0.73%</text>
<text xml:space="preserve" text-anchor="middle" x="913.94" y="-214.5" font-family="Arial" font-size="10.00" fill="#0d1074">55782755×</text>
</g>
<!-- 14&#45;&gt;24 -->
<g id="edge22" class="edge">
<title>14&#45;&gt;24</title>
<path fill="none" stroke="#0d0e73" stroke-width="0.5" d="M789.2,-325.54C788.88,-305.29 788.45,-277.71 788.12,-256.55"/>
<polygon fill="#0d0e73" stroke="#0d0e73" stroke-width="0.5" points="789.34,-256.65 788.07,-253.17 786.9,-256.69 789.34,-256.65"/>
<text xml:space="preserve" text-anchor="middle" x="813.03" y="-291.5" font-family="Arial" font-size="10.00" fill="#0d0e73">0.41%</text>
<text xml:space="preserve" text-anchor="middle" x="813.03" y="-279.5" font-family="Arial" font-size="10.00" fill="#0d0e73">26593674×</text>
</g>
<!-- 13 -->
<g id="node18" class="node">
<title>13</title>
<g id="a_node18"><a xlink:title="/Users/jzou/cs336/ass1/cs336_basics/train_bpe.py">
<polygon fill="#ff0100" stroke="#ff0100" points="870.25,-774 753,-774 753,-718 870.25,-718 870.25,-774"/>
<text xml:space="preserve" text-anchor="middle" x="811.62" y="-760.5" font-family="Arial" font-size="10.00" fill="#ffffff">train_bpe:675:train_bpe</text>
<text xml:space="preserve" text-anchor="middle" x="811.62" y="-748.5" font-family="Arial" font-size="10.00" fill="#ffffff">99.87%</text>
<text xml:space="preserve" text-anchor="middle" x="811.62" y="-736.5" font-family="Arial" font-size="10.00" fill="#ffffff">(3.08%)</text>
<text xml:space="preserve" text-anchor="middle" x="811.62" y="-724.5" font-family="Arial" font-size="10.00" fill="#ffffff">1×</text>
</a>
</g>
</g>
<!-- 16 -->
<g id="node19" class="node">
<title>16</title>
<g id="a_node19"><a xlink:title="/Users/jzou/cs336/ass1/cs336_basics/train_bpe.py">
<polygon fill="#f92901" stroke="#f92901" points="765.12,-676 596.12,-676 596.12,-620 765.12,-620 765.12,-676"/>
<text xml:space="preserve" text-anchor="middle" x="680.62" y="-662.5" font-family="Arial" font-size="10.00" fill="#ffffff">train_bpe:627:perform_bpe_merges</text>
<text xml:space="preserve" text-anchor="middle" x="680.62" y="-650.5" font-family="Arial" font-size="10.00" fill="#ffffff">95.95%</text>
<text xml:space="preserve" text-anchor="middle" x="680.62" y="-638.5" font-family="Arial" font-size="10.00" fill="#ffffff">(0.00%)</text>
<text xml:space="preserve" text-anchor="middle" x="680.62" y="-626.5" font-family="Arial" font-size="10.00" fill="#ffffff">1×</text>
</a>
</g>
</g>
<!-- 13&#45;&gt;16 -->
<g id="edge20" class="edge">
<title>13&#45;&gt;16</title>
<path fill="none" stroke="#f92901" stroke-width="3.84" d="M774.44,-717.75C760.75,-707.71 745.01,-696.18 730.39,-685.47"/>
<polygon fill="#f92901" stroke="#f92901" stroke-width="3.84" points="732.53,-682.78 722.59,-679.76 728.47,-688.32 732.53,-682.78"/>
<text xml:space="preserve" text-anchor="middle" x="778.21" y="-699.5" font-family="Arial" font-size="10.00" fill="#f92901">95.95%</text>
<text xml:space="preserve" text-anchor="middle" x="778.21" y="-687.5" font-family="Arial" font-size="10.00" fill="#f92901">1×</text>
</g>
<!-- 21 -->
<g id="node20" class="node">
<title>21</title>
<g id="a_node20"><a xlink:title="~">
<polygon fill="#0d1074" stroke="#0d1074" points="937.5,-676 773.75,-676 773.75,-620 937.5,-620 937.5,-676"/>
<text xml:space="preserve" text-anchor="middle" x="855.62" y="-662.5" font-family="Arial" font-size="10.00" fill="#ffffff">~:0:&lt;built&#45;in method _pickle.load&gt;</text>
<text xml:space="preserve" text-anchor="middle" x="855.62" y="-650.5" font-family="Arial" font-size="10.00" fill="#ffffff">0.84%</text>
<text xml:space="preserve" text-anchor="middle" x="855.62" y="-638.5" font-family="Arial" font-size="10.00" fill="#ffffff">(0.84%)</text>
<text xml:space="preserve" text-anchor="middle" x="855.62" y="-626.5" font-family="Arial" font-size="10.00" fill="#ffffff">1×</text>
</a>
</g>
</g>
<!-- 13&#45;&gt;21 -->
<g id="edge21" class="edge">
<title>13&#45;&gt;21</title>
<path fill="none" stroke="#0d1074" stroke-width="0.5" d="M824.12,-717.75C829.5,-705.99 835.83,-692.18 841.4,-680.03"/>
<polygon fill="#0d1074" stroke="#0d1074" stroke-width="0.5" points="842.44,-680.7 842.79,-677.01 840.22,-679.68 842.44,-680.7"/>
<text xml:space="preserve" text-anchor="middle" x="852.73" y="-699.5" font-family="Arial" font-size="10.00" fill="#0d1074">0.84%</text>
<text xml:space="preserve" text-anchor="middle" x="852.73" y="-687.5" font-family="Arial" font-size="10.00" fill="#0d1074">1×</text>
</g>
<!-- 25 -->
<g id="node21" class="node">
<title>25</title>
<g id="a_node21"><a xlink:title="/Users/jzou/cs336/ass1/cs336_basics/train_bpe.py">
<polygon fill="#f92901" stroke="#f92901" points="778.25,-578 583,-578 583,-522 778.25,-522 778.25,-578"/>
<text xml:space="preserve" text-anchor="middle" x="680.62" y="-564.5" font-family="Arial" font-size="10.00" fill="#ffffff">train_bpe:546:perform_optimized_merges</text>
<text xml:space="preserve" text-anchor="middle" x="680.62" y="-552.5" font-family="Arial" font-size="10.00" fill="#ffffff">95.95%</text>
<text xml:space="preserve" text-anchor="middle" x="680.62" y="-540.5" font-family="Arial" font-size="10.00" fill="#ffffff">(1.13%)</text>
<text xml:space="preserve" text-anchor="middle" x="680.62" y="-528.5" font-family="Arial" font-size="10.00" fill="#ffffff">1×</text>
</a>
</g>
</g>
<!-- 16&#45;&gt;25 -->
<g id="edge24" class="edge">
<title>16&#45;&gt;25</title>
<path fill="none" stroke="#f92901" stroke-width="3.84" d="M680.62,-619.75C680.62,-611.64 680.62,-602.56 680.62,-593.71"/>
<polygon fill="#f92901" stroke="#f92901" stroke-width="3.84" points="684.06,-593.93 680.63,-584.13 677.2,-593.93 684.06,-593.93"/>
<text xml:space="preserve" text-anchor="middle" x="697.12" y="-601.5" font-family="Arial" font-size="10.00" fill="#f92901">95.95%</text>
<text xml:space="preserve" text-anchor="middle" x="697.12" y="-589.5" font-family="Arial" font-size="10.00" fill="#f92901">1×</text>
</g>
<!-- 25&#45;&gt;9 -->
<g id="edge27" class="edge">
<title>25&#45;&gt;9</title>
<path fill="none" stroke="#0d1d78" stroke-width="0.5" d="M750.79,-521.62C782.59,-509.21 820.2,-494.53 852.46,-481.94"/>
<polygon fill="#0d1d78" stroke="#0d1d78" stroke-width="0.5" points="852.85,-483.11 855.66,-480.69 851.96,-480.82 852.85,-483.11"/>
<text xml:space="preserve" text-anchor="middle" x="846.77" y="-503.5" font-family="Arial" font-size="10.00" fill="#0d1d78">3.84%</text>
<text xml:space="preserve" text-anchor="middle" x="846.77" y="-491.5" font-family="Arial" font-size="10.00" fill="#0d1d78">9×</text>
</g>
<!-- 25&#45;&gt;10 -->
<g id="edge28" class="edge">
<title>25&#45;&gt;10</title>
<path fill="none" stroke="#dbd105" stroke-width="3.05" d="M629.24,-521.75C608.69,-510.85 584.82,-498.18 563.2,-486.72"/>
<polygon fill="#dbd105" stroke="#dbd105" stroke-width="3.05" points="564.64,-484.04 555.53,-482.65 561.79,-489.42 564.64,-484.04"/>
<text xml:space="preserve" text-anchor="middle" x="628.16" y="-503.5" font-family="Arial" font-size="10.00" fill="#dbd105">76.27%</text>
<text xml:space="preserve" text-anchor="middle" x="628.16" y="-491.5" font-family="Arial" font-size="10.00" fill="#dbd105">9×</text>
</g>
<!-- 23 -->
<g id="node22" class="node">
<title>23</title>
<g id="a_node22"><a xlink:title="/Users/jzou/cs336/ass1/cs336_basics/train_bpe.py">
<polygon fill="#0c5386" stroke="#0c5386" points="737,-480 624.25,-480 624.25,-424 737,-424 737,-480"/>
<text xml:space="preserve" text-anchor="middle" x="680.62" y="-466.5" font-family="Arial" font-size="10.00" fill="#ffffff">train_bpe:342:initialize</text>
<text xml:space="preserve" text-anchor="middle" x="680.62" y="-454.5" font-family="Arial" font-size="10.00" fill="#ffffff">14.64%</text>
<text xml:space="preserve" text-anchor="middle" x="680.62" y="-442.5" font-family="Arial" font-size="10.00" fill="#ffffff">(0.69%)</text>
<text xml:space="preserve" text-anchor="middle" x="680.62" y="-430.5" font-family="Arial" font-size="10.00" fill="#ffffff">1×</text>
</a>
</g>
</g>
<!-- 25&#45;&gt;23 -->
<g id="edge29" class="edge">
<title>25&#45;&gt;23</title>
<path fill="none" stroke="#0c5386" stroke-width="0.59" d="M680.62,-521.75C680.62,-510.3 680.62,-496.89 680.62,-484.98"/>
<polygon fill="#0c5386" stroke="#0c5386" stroke-width="0.59" points="681.96,-485.01 680.63,-481.21 679.3,-485.01 681.96,-485.01"/>
<text xml:space="preserve" text-anchor="middle" x="697.12" y="-503.5" font-family="Arial" font-size="10.00" fill="#0c5386">14.64%</text>
<text xml:space="preserve" text-anchor="middle" x="697.12" y="-491.5" font-family="Arial" font-size="10.00" fill="#0c5386">1×</text>
</g>
<!-- 23&#45;&gt;3 -->
<g id="edge25" class="edge">
<title>23&#45;&gt;3</title>
<path fill="none" stroke="#0d4e84" stroke-width="0.55" d="M654.79,-423.75C643.46,-411.79 630.1,-397.7 618.45,-385.41"/>
<polygon fill="#0d4e84" stroke="#0d4e84" stroke-width="0.55" points="619.58,-384.72 616.1,-382.93 617.7,-386.5 619.58,-384.72"/>
<text xml:space="preserve" text-anchor="middle" x="662.45" y="-405.5" font-family="Arial" font-size="10.00" fill="#0d4e84">13.69%</text>
<text xml:space="preserve" text-anchor="middle" x="662.45" y="-393.5" font-family="Arial" font-size="10.00" fill="#0d4e84">1×</text>
</g>
<!-- 23&#45;&gt;24 -->
<g id="edge26" class="edge">
<title>23&#45;&gt;24</title>
<path fill="none" stroke="#0d0e73" stroke-width="0.5" d="M737.39,-440.01C792.86,-427.99 871.52,-407.04 889.62,-382 923.82,-334.71 880.92,-301.21 838.62,-261 836.52,-259 834.29,-257.02 832,-255.08"/>
<polygon fill="#0d0e73" stroke="#0d0e73" stroke-width="0.5" points="832.89,-254.23 829.42,-252.95 831.34,-256.12 832.89,-254.23"/>
<text xml:space="preserve" text-anchor="middle" x="926.03" y="-356.5" font-family="Arial" font-size="10.00" fill="#0d0e73">0.27%</text>
<text xml:space="preserve" text-anchor="middle" x="926.03" y="-344.5" font-family="Arial" font-size="10.00" fill="#0d0e73">19805676×</text>
</g>
<!-- 45 -->
<g id="node23" class="node">
<title>45</title>
<g id="a_node23"><a xlink:title="/Users/jzou/cs336/ass1/scripts/train_bpe_cli.py">
<polygon fill="#ff0000" stroke="#ff0000" points="883,-872 740.25,-872 740.25,-816 883,-816 883,-872"/>
<text xml:space="preserve" text-anchor="middle" x="811.62" y="-858.5" font-family="Arial" font-size="10.00" fill="#ffffff">train_bpe_cli:192:run_training</text>
<text xml:space="preserve" text-anchor="middle" x="811.62" y="-846.5" font-family="Arial" font-size="10.00" fill="#ffffff">100.00%</text>
<text xml:space="preserve" text-anchor="middle" x="811.62" y="-834.5" font-family="Arial" font-size="10.00" fill="#ffffff">(0.13%)</text>
<text xml:space="preserve" text-anchor="middle" x="811.62" y="-822.5" font-family="Arial" font-size="10.00" fill="#ffffff">1×</text>
</a>
</g>
</g>
<!-- 45&#45;&gt;13 -->
<g id="edge30" class="edge">
<title>45&#45;&gt;13</title>
<path fill="none" stroke="#ff0100" stroke-width="3.99" d="M811.62,-815.75C811.62,-807.74 811.62,-798.78 811.62,-790.04"/>
<polygon fill="#ff0100" stroke="#ff0100" stroke-width="3.99" points="815.13,-790.36 811.63,-780.36 808.13,-790.36 815.13,-790.36"/>
<text xml:space="preserve" text-anchor="middle" x="828.12" y="-797.5" font-family="Arial" font-size="10.00" fill="#ff0100">99.87%</text>
<text xml:space="preserve" text-anchor="middle" x="828.12" y="-785.5" font-family="Arial" font-size="10.00" fill="#ff0100">1×</text>
</g>
</g>
</svg>
