<?xml version="1.0" encoding="UTF-8" standalone="no"?>
<!DOCTYPE svg PUBLIC "-//W3C//DTD SVG 1.1//EN"
 "http://www.w3.org/Graphics/SVG/1.1/DTD/svg11.dtd">
<!-- Generated by graphviz version 13.1.0 (20250701.0955)
 -->
<!-- Pages: 1 -->
<svg width="1013pt" height="750pt"
 viewBox="0.00 0.00 1013.00 750.00" xmlns="http://www.w3.org/2000/svg" xmlns:xlink="http://www.w3.org/1999/xlink">
<g id="graph0" class="graph" transform="scale(1 1) rotate(0) translate(4 746)">
<g id="a_graph0"><a xlink:title=" ">
<polygon fill="white" stroke="none" points="-4,4 -4,-746 1008.62,-746 1008.62,4 -4,4"/>
</a>
</g>
<!-- 4 -->
<g id="node1" class="node">
<title>4</title>
<g id="a_node1"><a xlink:title="/Users/jzou/cs336/ass1/cs336_basics/train_bpe.py">
<polygon fill="#0d1475" stroke="#0d1475" points="554.12,-154 391.88,-154 391.88,-98 554.12,-98 554.12,-154"/>
<text xml:space="preserve" text-anchor="middle" x="473" y="-140.5" font-family="Arial" font-size="10.00" fill="#ffffff">train_bpe:405:_update_pair_count</text>
<text xml:space="preserve" text-anchor="middle" x="473" y="-128.5" font-family="Arial" font-size="10.00" fill="#ffffff">1.64%</text>
<text xml:space="preserve" text-anchor="middle" x="473" y="-116.5" font-family="Arial" font-size="10.00" fill="#ffffff">(1.60%)</text>
<text xml:space="preserve" text-anchor="middle" x="473" y="-104.5" font-family="Arial" font-size="10.00" fill="#ffffff">84279×</text>
</a>
</g>
</g>
<!-- 5 -->
<g id="node2" class="node">
<title>5</title>
<g id="a_node2"><a xlink:title="/Users/jzou/cs336/ass1/cs336_basics/train_bpe.py">
<polygon fill="#0c9a7e" stroke="#0c9a7e" points="860.75,-252 669.25,-252 669.25,-196 860.75,-196 860.75,-252"/>
<text xml:space="preserve" text-anchor="middle" x="765" y="-238.5" font-family="Arial" font-size="10.00" fill="#ffffff">train_bpe:377:_build_initial_pair_tracking</text>
<text xml:space="preserve" text-anchor="middle" x="765" y="-226.5" font-family="Arial" font-size="10.00" fill="#ffffff">29.90%</text>
<text xml:space="preserve" text-anchor="middle" x="765" y="-214.5" font-family="Arial" font-size="10.00" fill="#ffffff">(14.42%)</text>
<text xml:space="preserve" text-anchor="middle" x="765" y="-202.5" font-family="Arial" font-size="10.00" fill="#ffffff">1×</text>
</a>
</g>
</g>
<!-- 9 -->
<g id="node3" class="node">
<title>9</title>
<g id="a_node3"><a xlink:title="/Users/jzou/cs336/ass1/cs336_basics/train_bpe.py">
<polygon fill="#0d367e" stroke="#0d367e" points="944.5,-154 805.5,-154 805.5,-98 944.5,-98 944.5,-154"/>
<text xml:space="preserve" text-anchor="middle" x="875" y="-140.5" font-family="Arial" font-size="10.00" fill="#ffffff">train_bpe:366:_extract_pairs</text>
<text xml:space="preserve" text-anchor="middle" x="875" y="-128.5" font-family="Arial" font-size="10.00" fill="#ffffff">9.03%</text>
<text xml:space="preserve" text-anchor="middle" x="875" y="-116.5" font-family="Arial" font-size="10.00" fill="#ffffff">(7.19%)</text>
<text xml:space="preserve" text-anchor="middle" x="875" y="-104.5" font-family="Arial" font-size="10.00" fill="#ffffff">6601892×</text>
</a>
</g>
</g>
<!-- 5&#45;&gt;9 -->
<g id="edge1" class="edge">
<title>5&#45;&gt;9</title>
<path fill="none" stroke="#0d367e" stroke-width="0.5" d="M796.23,-195.75C810.05,-183.69 826.34,-169.46 840.52,-157.09"/>
<polygon fill="#0d367e" stroke="#0d367e" stroke-width="0.5" points="841.29,-158.04 843.12,-154.82 839.68,-156.2 841.29,-158.04"/>
<text xml:space="preserve" text-anchor="middle" x="854.46" y="-177.5" font-family="Arial" font-size="10.00" fill="#0d367e">9.03%</text>
<text xml:space="preserve" text-anchor="middle" x="854.46" y="-165.5" font-family="Arial" font-size="10.00" fill="#0d367e">6601892×</text>
</g>
<!-- 27 -->
<g id="node4" class="node">
<title>27</title>
<g id="a_node4"><a xlink:title="~">
<polygon fill="#0d4081" stroke="#0d4081" points="796.75,-154 629.25,-154 629.25,-98 796.75,-98 796.75,-154"/>
<text xml:space="preserve" text-anchor="middle" x="713" y="-140.5" font-family="Arial" font-size="10.00" fill="#ffffff">~:0:&lt;method &#39;add&#39; of &#39;set&#39; objects&gt;</text>
<text xml:space="preserve" text-anchor="middle" x="713" y="-128.5" font-family="Arial" font-size="10.00" fill="#ffffff">10.95%</text>
<text xml:space="preserve" text-anchor="middle" x="713" y="-116.5" font-family="Arial" font-size="10.00" fill="#ffffff">(10.95%)</text>
<text xml:space="preserve" text-anchor="middle" x="713" y="-104.5" font-family="Arial" font-size="10.00" fill="#ffffff">107890871×</text>
</a>
</g>
</g>
<!-- 5&#45;&gt;27 -->
<g id="edge2" class="edge">
<title>5&#45;&gt;27</title>
<path fill="none" stroke="#0d297b" stroke-width="0.5" d="M750.24,-195.75C743.87,-183.99 736.39,-170.18 729.81,-158.03"/>
<polygon fill="#0d297b" stroke="#0d297b" stroke-width="0.5" points="730.9,-157.48 728.16,-154.99 728.75,-158.65 730.9,-157.48"/>
<text xml:space="preserve" text-anchor="middle" x="769.19" y="-177.5" font-family="Arial" font-size="10.00" fill="#0d297b">6.45%</text>
<text xml:space="preserve" text-anchor="middle" x="769.19" y="-165.5" font-family="Arial" font-size="10.00" fill="#0d297b">57194060×</text>
</g>
<!-- 21 -->
<g id="node8" class="node">
<title>21</title>
<g id="a_node8"><a xlink:title="~">
<polygon fill="#0d267a" stroke="#0d267a" points="814.25,-56 631.75,-56 631.75,0 814.25,0 814.25,-56"/>
<text xml:space="preserve" text-anchor="middle" x="723" y="-42.5" font-family="Arial" font-size="10.00" fill="#ffffff">~:0:&lt;method &#39;append&#39; of &#39;list&#39; objects&gt;</text>
<text xml:space="preserve" text-anchor="middle" x="723" y="-30.5" font-family="Arial" font-size="10.00" fill="#ffffff">5.72%</text>
<text xml:space="preserve" text-anchor="middle" x="723" y="-18.5" font-family="Arial" font-size="10.00" fill="#ffffff">(5.72%)</text>
<text xml:space="preserve" text-anchor="middle" x="723" y="-6.5" font-family="Arial" font-size="10.00" fill="#ffffff">193860939×</text>
</a>
</g>
</g>
<!-- 9&#45;&gt;21 -->
<g id="edge5" class="edge">
<title>9&#45;&gt;21</title>
<path fill="none" stroke="#0d1475" stroke-width="0.5" d="M831.85,-97.75C812.52,-85.54 789.67,-71.11 769.92,-58.63"/>
<polygon fill="#0d1475" stroke="#0d1475" stroke-width="0.5" points="770.78,-57.73 767.16,-56.89 769.47,-59.8 770.78,-57.73"/>
<text xml:space="preserve" text-anchor="middle" x="841.08" y="-79.5" font-family="Arial" font-size="10.00" fill="#0d1475">1.65%</text>
<text xml:space="preserve" text-anchor="middle" x="841.08" y="-67.5" font-family="Arial" font-size="10.00" fill="#0d1475">57194060×</text>
</g>
<!-- 8 -->
<g id="node5" class="node">
<title>8</title>
<g id="a_node5"><a xlink:title="/Users/jzou/cs336/ass1/cs336_basics/train_bpe.py">
<polygon fill="#ff0200" stroke="#ff0200" points="760.62,-644 643.38,-644 643.38,-588 760.62,-588 760.62,-644"/>
<text xml:space="preserve" text-anchor="middle" x="702" y="-630.5" font-family="Arial" font-size="10.00" fill="#ffffff">train_bpe:738:train_bpe</text>
<text xml:space="preserve" text-anchor="middle" x="702" y="-618.5" font-family="Arial" font-size="10.00" fill="#ffffff">99.85%</text>
<text xml:space="preserve" text-anchor="middle" x="702" y="-606.5" font-family="Arial" font-size="10.00" fill="#ffffff">(0.92%)</text>
<text xml:space="preserve" text-anchor="middle" x="702" y="-594.5" font-family="Arial" font-size="10.00" fill="#ffffff">1×</text>
</a>
</g>
</g>
<!-- 11 -->
<g id="node6" class="node">
<title>11</title>
<g id="a_node6"><a xlink:title="/Users/jzou/cs336/ass1/cs336_basics/train_bpe.py">
<polygon fill="#fb1c01" stroke="#fb1c01" points="699.5,-546 530.5,-546 530.5,-490 699.5,-490 699.5,-546"/>
<text xml:space="preserve" text-anchor="middle" x="615" y="-532.5" font-family="Arial" font-size="10.00" fill="#ffffff">train_bpe:690:perform_bpe_merges</text>
<text xml:space="preserve" text-anchor="middle" x="615" y="-520.5" font-family="Arial" font-size="10.00" fill="#ffffff">97.25%</text>
<text xml:space="preserve" text-anchor="middle" x="615" y="-508.5" font-family="Arial" font-size="10.00" fill="#ffffff">(0.00%)</text>
<text xml:space="preserve" text-anchor="middle" x="615" y="-496.5" font-family="Arial" font-size="10.00" fill="#ffffff">1×</text>
</a>
</g>
</g>
<!-- 8&#45;&gt;11 -->
<g id="edge3" class="edge">
<title>8&#45;&gt;11</title>
<path fill="none" stroke="#fb1c01" stroke-width="3.89" d="M677.3,-587.75C668.85,-578.42 659.23,-567.81 650.12,-557.75"/>
<polygon fill="#fb1c01" stroke="#fb1c01" stroke-width="3.89" points="652.93,-555.69 643.71,-550.68 647.79,-560.35 652.93,-555.69"/>
<text xml:space="preserve" text-anchor="middle" x="685.35" y="-569.5" font-family="Arial" font-size="10.00" fill="#fb1c01">97.25%</text>
<text xml:space="preserve" text-anchor="middle" x="685.35" y="-557.5" font-family="Arial" font-size="10.00" fill="#fb1c01">1×</text>
</g>
<!-- 18 -->
<g id="node7" class="node">
<title>18</title>
<g id="a_node7"><a xlink:title="~">
<polygon fill="#0d1475" stroke="#0d1475" points="871.88,-546 708.12,-546 708.12,-490 871.88,-490 871.88,-546"/>
<text xml:space="preserve" text-anchor="middle" x="790" y="-532.5" font-family="Arial" font-size="10.00" fill="#ffffff">~:0:&lt;built&#45;in method _pickle.load&gt;</text>
<text xml:space="preserve" text-anchor="middle" x="790" y="-520.5" font-family="Arial" font-size="10.00" fill="#ffffff">1.69%</text>
<text xml:space="preserve" text-anchor="middle" x="790" y="-508.5" font-family="Arial" font-size="10.00" fill="#ffffff">(1.69%)</text>
<text xml:space="preserve" text-anchor="middle" x="790" y="-496.5" font-family="Arial" font-size="10.00" fill="#ffffff">1×</text>
</a>
</g>
</g>
<!-- 8&#45;&gt;18 -->
<g id="edge4" class="edge">
<title>8&#45;&gt;18</title>
<path fill="none" stroke="#0d1475" stroke-width="0.5" d="M726.98,-587.75C737.94,-575.79 750.85,-561.7 762.13,-549.41"/>
<polygon fill="#0d1475" stroke="#0d1475" stroke-width="0.5" points="762.98,-550.29 764.44,-546.88 761.18,-548.63 762.98,-550.29"/>
<text xml:space="preserve" text-anchor="middle" x="770.34" y="-569.5" font-family="Arial" font-size="10.00" fill="#0d1475">1.69%</text>
<text xml:space="preserve" text-anchor="middle" x="770.34" y="-557.5" font-family="Arial" font-size="10.00" fill="#0d1475">1×</text>
</g>
<!-- 22 -->
<g id="node9" class="node">
<title>22</title>
<g id="a_node9"><a xlink:title="/Users/jzou/cs336/ass1/cs336_basics/train_bpe.py">
<polygon fill="#fb1c01" stroke="#fb1c01" points="712.62,-448 517.38,-448 517.38,-392 712.62,-392 712.62,-448"/>
<text xml:space="preserve" text-anchor="middle" x="615" y="-434.5" font-family="Arial" font-size="10.00" fill="#ffffff">train_bpe:609:perform_optimized_merges</text>
<text xml:space="preserve" text-anchor="middle" x="615" y="-422.5" font-family="Arial" font-size="10.00" fill="#ffffff">97.25%</text>
<text xml:space="preserve" text-anchor="middle" x="615" y="-410.5" font-family="Arial" font-size="10.00" fill="#ffffff">(3.46%)</text>
<text xml:space="preserve" text-anchor="middle" x="615" y="-398.5" font-family="Arial" font-size="10.00" fill="#ffffff">1×</text>
</a>
</g>
</g>
<!-- 11&#45;&gt;22 -->
<g id="edge6" class="edge">
<title>11&#45;&gt;22</title>
<path fill="none" stroke="#fb1c01" stroke-width="3.89" d="M615,-489.75C615,-481.74 615,-472.78 615,-464.04"/>
<polygon fill="#fb1c01" stroke="#fb1c01" stroke-width="3.89" points="618.47,-464.11 615,-454.21 611.54,-464.11 618.47,-464.11"/>
<text xml:space="preserve" text-anchor="middle" x="631.5" y="-471.5" font-family="Arial" font-size="10.00" fill="#fb1c01">97.25%</text>
<text xml:space="preserve" text-anchor="middle" x="631.5" y="-459.5" font-family="Arial" font-size="10.00" fill="#fb1c01">1×</text>
</g>
<!-- 14 -->
<g id="node10" class="node">
<title>14</title>
<g id="a_node10"><a xlink:title="/Users/jzou/cs336/ass1/cs336_basics/train_bpe.py">
<polygon fill="#63c708" stroke="#63c708" points="642.38,-252 445.62,-252 445.62,-196 642.38,-196 642.38,-252"/>
<text xml:space="preserve" text-anchor="middle" x="544" y="-238.5" font-family="Arial" font-size="10.00" fill="#ffffff">train_bpe:457:update_tokens_incremental</text>
<text xml:space="preserve" text-anchor="middle" x="544" y="-226.5" font-family="Arial" font-size="10.00" fill="#ffffff">61.96%</text>
<text xml:space="preserve" text-anchor="middle" x="544" y="-214.5" font-family="Arial" font-size="10.00" fill="#ffffff">(39.86%)</text>
<text xml:space="preserve" text-anchor="middle" x="544" y="-202.5" font-family="Arial" font-size="10.00" fill="#ffffff">9×</text>
</a>
</g>
</g>
<!-- 22&#45;&gt;14 -->
<g id="edge15" class="edge">
<title>22&#45;&gt;14</title>
<path fill="none" stroke="#63c708" stroke-width="2.48" d="M604.98,-391.62C592.66,-357.96 571.7,-300.69 557.85,-262.84"/>
<polygon fill="#63c708" stroke="#63c708" stroke-width="2.48" points="560.57,-262.24 555.26,-255.77 555.38,-264.14 560.57,-262.24"/>
<text xml:space="preserve" text-anchor="middle" x="605.37" y="-324.5" font-family="Arial" font-size="10.00" fill="#63c708">61.96%</text>
<text xml:space="preserve" text-anchor="middle" x="605.37" y="-312.5" font-family="Arial" font-size="10.00" fill="#63c708">9×</text>
</g>
<!-- 20 -->
<g id="node13" class="node">
<title>20</title>
<g id="a_node13"><a xlink:title="/Users/jzou/cs336/ass1/cs336_basics/train_bpe.py">
<polygon fill="#0b9d75" stroke="#0b9d75" points="821.38,-350 708.62,-350 708.62,-294 821.38,-294 821.38,-350"/>
<text xml:space="preserve" text-anchor="middle" x="765" y="-336.5" font-family="Arial" font-size="10.00" fill="#ffffff">train_bpe:342:initialize</text>
<text xml:space="preserve" text-anchor="middle" x="765" y="-324.5" font-family="Arial" font-size="10.00" fill="#ffffff">31.80%</text>
<text xml:space="preserve" text-anchor="middle" x="765" y="-312.5" font-family="Arial" font-size="10.00" fill="#ffffff">(1.37%)</text>
<text xml:space="preserve" text-anchor="middle" x="765" y="-300.5" font-family="Arial" font-size="10.00" fill="#ffffff">1×</text>
</a>
</g>
</g>
<!-- 22&#45;&gt;20 -->
<g id="edge16" class="edge">
<title>22&#45;&gt;20</title>
<path fill="none" stroke="#0b9d75" stroke-width="1.27" d="M657.58,-391.75C675.71,-380.14 696.98,-366.54 715.78,-354.5"/>
<polygon fill="#0b9d75" stroke="#0b9d75" stroke-width="1.27" points="716.77,-356.19 720.43,-351.52 714.66,-352.89 716.77,-356.19"/>
<text xml:space="preserve" text-anchor="middle" x="724.35" y="-373.5" font-family="Arial" font-size="10.00" fill="#0b9d75">31.80%</text>
<text xml:space="preserve" text-anchor="middle" x="724.35" y="-361.5" font-family="Arial" font-size="10.00" fill="#0b9d75">1×</text>
</g>
<!-- 14&#45;&gt;4 -->
<g id="edge7" class="edge">
<title>14&#45;&gt;4</title>
<path fill="none" stroke="#0d1475" stroke-width="0.5" d="M523.84,-195.75C515.08,-183.89 504.76,-169.94 495.72,-157.72"/>
<polygon fill="#0d1475" stroke="#0d1475" stroke-width="0.5" points="496.72,-157.02 493.66,-154.93 494.75,-158.47 496.72,-157.02"/>
<text xml:space="preserve" text-anchor="middle" x="533.07" y="-177.5" font-family="Arial" font-size="10.00" fill="#0d1475">1.64%</text>
<text xml:space="preserve" text-anchor="middle" x="533.07" y="-165.5" font-family="Arial" font-size="10.00" fill="#0d1475">84279×</text>
</g>
<!-- 14&#45;&gt;27 -->
<g id="edge10" class="edge">
<title>14&#45;&gt;27</title>
<path fill="none" stroke="#0d2079" stroke-width="0.5" d="M591.98,-195.75C613.56,-183.49 639.08,-168.99 661.11,-156.48"/>
<polygon fill="#0d2079" stroke="#0d2079" stroke-width="0.5" points="661.51,-157.66 663.95,-154.86 660.3,-155.53 661.51,-157.66"/>
<text xml:space="preserve" text-anchor="middle" x="672.23" y="-177.5" font-family="Arial" font-size="10.00" fill="#0d2079">4.50%</text>
<text xml:space="preserve" text-anchor="middle" x="672.23" y="-165.5" font-family="Arial" font-size="10.00" fill="#0d2079">50696811×</text>
</g>
<!-- 14&#45;&gt;21 -->
<g id="edge9" class="edge">
<title>14&#45;&gt;21</title>
<path fill="none" stroke="#0d1876" stroke-width="0.5" d="M549.93,-195.64C557.61,-161.19 570.72,-105.55 577,-98 591.06,-81.09 610.22,-68.06 630.03,-58.13"/>
<polygon fill="#0d1876" stroke="#0d1876" stroke-width="0.5" points="630.19,-59.41 632.79,-56.77 629.11,-57.21 630.19,-59.41"/>
<text xml:space="preserve" text-anchor="middle" x="601" y="-128.5" font-family="Arial" font-size="10.00" fill="#0d1876">2.75%</text>
<text xml:space="preserve" text-anchor="middle" x="601" y="-116.5" font-family="Arial" font-size="10.00" fill="#0d1876">90267520×</text>
</g>
<!-- 15 -->
<g id="node11" class="node">
<title>15</title>
<g id="a_node11"><a xlink:title="/Users/jzou/cs336/ass1/cs336_basics/train_bpe.py">
<polygon fill="#0d4081" stroke="#0d4081" points="190,-154 0,-154 0,-98 190,-98 190,-154"/>
<text xml:space="preserve" text-anchor="middle" x="95" y="-140.5" font-family="Arial" font-size="10.00" fill="#ffffff">train_bpe:586:_perform_merge_in_token</text>
<text xml:space="preserve" text-anchor="middle" x="95" y="-128.5" font-family="Arial" font-size="10.00" fill="#ffffff">11.01%</text>
<text xml:space="preserve" text-anchor="middle" x="95" y="-116.5" font-family="Arial" font-size="10.00" fill="#ffffff">(10.14%)</text>
<text xml:space="preserve" text-anchor="middle" x="95" y="-104.5" font-family="Arial" font-size="10.00" fill="#ffffff">2595407×</text>
</a>
</g>
</g>
<!-- 14&#45;&gt;15 -->
<g id="edge8" class="edge">
<title>14&#45;&gt;15</title>
<path fill="none" stroke="#0d4081" stroke-width="0.5" d="M445.33,-206.28C412.48,-200.48 375.74,-193.74 342.25,-187 276.5,-173.77 260.11,-170.08 195,-154 194.71,-153.93 194.41,-153.85 194.11,-153.78"/>
<polygon fill="#0d4081" stroke="#0d4081" stroke-width="0.5" points="194.68,-152.66 190.98,-153 194.08,-155.04 194.68,-152.66"/>
<text xml:space="preserve" text-anchor="middle" x="363.62" y="-177.5" font-family="Arial" font-size="10.00" fill="#0d4081">11.01%</text>
<text xml:space="preserve" text-anchor="middle" x="363.62" y="-165.5" font-family="Arial" font-size="10.00" fill="#0d4081">2595407×</text>
</g>
<!-- 28 -->
<g id="node12" class="node">
<title>28</title>
<g id="a_node12"><a xlink:title="~">
<polygon fill="#0d1475" stroke="#0d1475" points="382.62,-154 199.38,-154 199.38,-98 382.62,-98 382.62,-154"/>
<text xml:space="preserve" text-anchor="middle" x="291" y="-140.5" font-family="Arial" font-size="10.00" fill="#ffffff">~:0:&lt;method &#39;discard&#39; of &#39;set&#39; objects&gt;</text>
<text xml:space="preserve" text-anchor="middle" x="291" y="-128.5" font-family="Arial" font-size="10.00" fill="#ffffff">1.68%</text>
<text xml:space="preserve" text-anchor="middle" x="291" y="-116.5" font-family="Arial" font-size="10.00" fill="#ffffff">(1.68%)</text>
<text xml:space="preserve" text-anchor="middle" x="291" y="-104.5" font-family="Arial" font-size="10.00" fill="#ffffff">26001651×</text>
</a>
</g>
</g>
<!-- 14&#45;&gt;28 -->
<g id="edge11" class="edge">
<title>14&#45;&gt;28</title>
<path fill="none" stroke="#0d1475" stroke-width="0.5" d="M471.84,-195.62C439,-183.16 400.14,-168.41 366.87,-155.79"/>
<polygon fill="#0d1475" stroke="#0d1475" stroke-width="0.5" points="367.67,-154.78 363.96,-154.69 366.8,-157.07 367.67,-154.78"/>
<text xml:space="preserve" text-anchor="middle" x="471.6" y="-177.5" font-family="Arial" font-size="10.00" fill="#0d1475">1.68%</text>
<text xml:space="preserve" text-anchor="middle" x="471.6" y="-165.5" font-family="Arial" font-size="10.00" fill="#0d1475">26001651×</text>
</g>
<!-- 15&#45;&gt;21 -->
<g id="edge12" class="edge">
<title>15&#45;&gt;21</title>
<path fill="none" stroke="#0d1074" stroke-width="0.5" d="M190.47,-98.93C191.99,-98.61 193.5,-98.3 195,-98 344.71,-68.15 520.96,-48.1 627.23,-37.63"/>
<polygon fill="#0d1074" stroke="#0d1074" stroke-width="0.5" points="627.18,-38.86 630.54,-37.3 626.94,-36.42 627.18,-38.86"/>
<text xml:space="preserve" text-anchor="middle" x="406.65" y="-79.5" font-family="Arial" font-size="10.00" fill="#0d1074">0.79%</text>
<text xml:space="preserve" text-anchor="middle" x="406.65" y="-67.5" font-family="Arial" font-size="10.00" fill="#0d1074">26593674×</text>
</g>
<!-- 20&#45;&gt;5 -->
<g id="edge13" class="edge">
<title>20&#45;&gt;5</title>
<path fill="none" stroke="#0c9a7e" stroke-width="1.2" d="M765,-293.75C765,-283.11 765,-270.78 765,-259.53"/>
<polygon fill="#0c9a7e" stroke="#0c9a7e" stroke-width="1.2" points="766.93,-259.64 765,-254.14 763.08,-259.64 766.93,-259.64"/>
<text xml:space="preserve" text-anchor="middle" x="781.5" y="-275.5" font-family="Arial" font-size="10.00" fill="#0c9a7e">29.90%</text>
<text xml:space="preserve" text-anchor="middle" x="781.5" y="-263.5" font-family="Arial" font-size="10.00" fill="#0c9a7e">1×</text>
</g>
<!-- 20&#45;&gt;21 -->
<g id="edge14" class="edge">
<title>20&#45;&gt;21</title>
<path fill="none" stroke="#0d0f73" stroke-width="0.5" d="M817.39,-293.5C888.06,-252.7 999.57,-172.87 949,-98 933.69,-75.34 873.05,-57.57 818.44,-45.74"/>
<polygon fill="#0d0f73" stroke="#0d0f73" stroke-width="0.5" points="818.93,-44.6 815.26,-45.06 818.42,-46.99 818.93,-44.6"/>
<text xml:space="preserve" text-anchor="middle" x="980.62" y="-177.5" font-family="Arial" font-size="10.00" fill="#0d0f73">0.52%</text>
<text xml:space="preserve" text-anchor="middle" x="980.62" y="-165.5" font-family="Arial" font-size="10.00" fill="#0d0f73">19805676×</text>
</g>
<!-- 42 -->
<g id="node14" class="node">
<title>42</title>
<g id="a_node14"><a xlink:title="/Users/jzou/cs336/ass1/scripts/train_bpe_cli.py">
<polygon fill="#ff0000" stroke="#ff0000" points="773.38,-742 630.62,-742 630.62,-686 773.38,-686 773.38,-742"/>
<text xml:space="preserve" text-anchor="middle" x="702" y="-728.5" font-family="Arial" font-size="10.00" fill="#ffffff">train_bpe_cli:192:run_training</text>
<text xml:space="preserve" text-anchor="middle" x="702" y="-716.5" font-family="Arial" font-size="10.00" fill="#ffffff">100.00%</text>
<text xml:space="preserve" text-anchor="middle" x="702" y="-704.5" font-family="Arial" font-size="10.00" fill="#ffffff">(0.15%)</text>
<text xml:space="preserve" text-anchor="middle" x="702" y="-692.5" font-family="Arial" font-size="10.00" fill="#ffffff">1×</text>
</a>
</g>
</g>
<!-- 42&#45;&gt;8 -->
<g id="edge17" class="edge">
<title>42&#45;&gt;8</title>
<path fill="none" stroke="#ff0200" stroke-width="3.99" d="M702,-685.75C702,-677.74 702,-668.78 702,-660.04"/>
<polygon fill="#ff0200" stroke="#ff0200" stroke-width="3.99" points="705.5,-660.36 702,-650.36 698.5,-660.36 705.5,-660.36"/>
<text xml:space="preserve" text-anchor="middle" x="718.5" y="-667.5" font-family="Arial" font-size="10.00" fill="#ff0200">99.85%</text>
<text xml:space="preserve" text-anchor="middle" x="718.5" y="-655.5" font-family="Arial" font-size="10.00" fill="#ff0200">1×</text>
</g>
</g>
</svg>
